<?xml version="1.0" encoding="utf-8"?>
<!DOCTYPE svg PUBLIC "-//W3C//DTD SVG 1.1//EN" "http://www.w3.org/Graphics/SVG/1.1/DTD/svg11.dtd">
<svg aria-labelledby="title-energy-left" version="1.1" id="Layer_1" xmlns="http://www.w3.org/2000/svg" xmlns:xlink="http://www.w3.org/1999/xlink" x="0px" y="0px" width="360px" height="228px" viewBox="0 0 360 228" enable-background="new 0 0 360 228" xml:space="preserve">
	<title id="title-energy-left" lang="en">Slack</title>
	<path fill="#C30019" d="M343.6,203.9l-34-107.5l-50,131.6h100C351.9,226.6,343.6,203.9,343.6,203.9"/>
	<polygon fill="#DD3A46" points="309.5,96.4 340.1,0 249.3,0 	"/>
	<path fill="#D5002B" d="M259.6,228c7.9,0,15.2-22,15.9-24.1c0.8-2.1,34-107.5,34-107.5l-19.9-63C282,7.4,269,0,249.3,0H109v228 H259.6z"/>
	<path fill="#B6000B" d="M210.5,195.2L162.1,24c0,0-5.2-20.7-13.1-24H0v228h253.3C233.5,228,216.1,216.7,210.5,195.2"/>
</svg>