<?xml version="1.0" encoding="utf-8"?>
<!DOCTYPE svg PUBLIC "-//W3C//DTD SVG 1.0//EN" "http://www.w3.org/TR/2001/REC-SVG-20010904/DTD/svg10.dtd">
<svg aria-labelledby="title" version="1.0" id="Art" xmlns="http://www.w3.org/2000/svg" xmlns:xlink="http://www.w3.org/1999/xlink" x="0px" y="0px" width="32px" height="32px" viewBox="0 0 32 32" enable-background="new 0 0 32 32" xml:space="preserve">
<title id="title" lang="en">Yammer</title>

<g>
	<path fill="#575f65" class="icons-background" d="M26.1,5.7c0.1,0,0.1-0.1,0.2-0.1c0.7-0.2,1.4,0.1,1.8,0.7c0.5,0.7,0.3,1.6-0.4,2.2 c-3.4,1.9-8.4,4.1-9.2,3.5C17.7,11.4,25,6.2,26.1,5.7z"/>
	<path fill="#575f65" class="icons-background" d="M17.8,4.4L10,23.7c-1.3,3.3-2.6,5.6-6.6,5.6c-0.5,0-1.1,0-1.7-0.1c-0.8-0.2-1.3-1-1-1.8 c0.2-0.7,0.8-1.2,1.5-1.1c0,0,0.8,0,1,0c2.2,0,3.1-1.3,4.1-4.2L0.1,4.5c-0.3-0.9,0.2-1.9,1.1-2.2C2,1.9,3,2,3.3,2.8L9.1,17h0.1 l5.4-14.1c0.3-0.8,1.2-1.1,2.1-0.8C17.5,2.4,18,3.5,17.8,4.4z"/>
	<path fill="#575f65" class="icons-background" d="M28.1,25.9c-0.4,0.6-1.2,0.9-1.8,0.7c-0.1,0-0.1-0.1-0.2-0.1c-1.1-0.6-8.4-5.7-7.5-6.3 c0.8-0.6,5.8,1.7,9.2,3.5C28.4,24.3,28.5,25.2,28.1,25.9z"/>
	<path fill="#575f65" class="icons-background" d="M30.6,17.6c-3.9,0-9.3-0.4-9.8-1.3c-0.4-0.9,8.4-1.9,9.6-1.9c0.1,0,0.1,0,0.2,0c0.7,0.2,1.2,0.7,1.3,1.5 C32.1,16.7,31.5,17.4,30.6,17.6z"/>
</g>
</svg>
