<?xml version="1.0" encoding="utf-8"?>
<!DOCTYPE svg PUBLIC "-//W3C//DTD SVG 1.1//EN" "http://www.w3.org/Graphics/SVG/1.1/DTD/svg11.dtd">
<svg aria-labelledby="title" version="1.1" id="art" xmlns="http://www.w3.org/2000/svg" xmlns:xlink="http://www.w3.org/1999/xlink" x="0px" y="0px"
	 width="22px" height="34px" viewBox="0 0 22 34" enable-background="new 0 0 22 34" xml:space="preserve">
	<title id="title" lang="en">Fablet</title>

	<path class="icon-background" fill="#333" d="M20,0H2C0.9,0,0,0.9,0,2v30c0,1.1,0.9,2,2,2h18c1.1,0,2-0.9,2-2V2C22,0.9,21.1,0,20,0z M9,1h4v1H9V1z M9,32
		H7v-1h2V32z M12,32h-2v-1h2V32z M15,32h-2v-1h2V32z M20,29H2V3h18V29z"/>
</svg>