<?xml version="1.0" encoding="utf-8"?>
<!DOCTYPE svg PUBLIC "-//W3C//DTD SVG 1.1//EN" "http://www.w3.org/Graphics/SVG/1.1/DTD/svg11.dtd">
<svg version="1.1" xmlns="http://www.w3.org/2000/svg" xmlns:xlink="http://www.w3.org/1999/xlink" x="0px" y="0px" width="699px" height="448px" viewBox="0 0 699 448" enable-background="new 0 0 699 448" xml:space="preserve">
	<g opacity="5.000000e-02">
		<path fill="#ABE2EC" d="M651.4,0C546.6,1.4,442,40.8,360.1,118.8c-81.9,78-126.3,180.5-132.8,285.1 c104.8-1.4,209.4-40.7,291.3-118.7C600.4,207.2,644.9,104.7,651.4,0"/>
	</g>
	<g opacity="5.000000e-02">
		<path fill="#ABE2EC" d="M421.3,354.5c-1.2-87.6-34.1-175-99.3-243.5C256.9,42.6,171.2,5.4,83.8,0c1.1,87.6,34.1,175,99.2,243.4 C248.2,311.9,333.8,349.1,421.3,354.5"/>
	</g>
	<g opacity="5.000000e-02">
		<path fill="#ABE2EC" d="M226.6,404.9c-0.8-58.8-22.9-117.5-66.6-163.4c-43.7-45.9-101.2-70.9-160-74.5 c0.8,58.8,22.9,117.5,66.6,163.4C110.4,376.3,167.9,401.2,226.6,404.9"/>
	</g>
	<g opacity="5.000000e-02">
		<path fill="#ABE2EC" d="M401.4,447.3c73.4-1,146.6-28.5,203.9-83.1c57.3-54.6,88.4-126.3,93-199.5 c-73.4,0.9-146.5,28.5-203.8,83.1C437,302.3,405.9,374,401.4,447.3"/>
	</g>
</svg>