<?xml version="1.0" encoding="utf-8"?>
<!DOCTYPE svg PUBLIC "-//W3C//DTD SVG 1.1//EN" "http://www.w3.org/Graphics/SVG/1.1/DTD/svg11.dtd">
<svg aria-labelledby="title" version="1.1" id="art" xmlns="http://www.w3.org/2000/svg" xmlns:xlink="http://www.w3.org/1999/xlink" x="0px" y="0px"
	 width="18px" height="32px" viewBox="0 0 18 32" enable-background="new 0 0 18 32" xml:space="preserve">
	<title id="title" lang="en">Phone</title>

	<path class="icon-background" fill="#69727E" d="M16,0H2C0.9,0,0,0.9,0,2v28c0,1.1,0.9,2,2,2h14c1.1,0,2-0.9,2-2V2C18,0.9,17.1,0,16,0z M5,1h8v1H5V1z M16,26
		H2V3h14V26z M9,31c-1.1,0-2-0.9-2-2c0-1.1,0.9-2,2-2s2,0.9,2,2C11,30.1,10.1,31,9,31"/>
</svg>