<?xml version="1.0" encoding="utf-8"?>
<!DOCTYPE svg PUBLIC "-//W3C//DTD SVG 1.0//EN" "http://www.w3.org/TR/2001/REC-SVG-20010904/DTD/svg10.dtd">
<svg aria-labelledby="title" version="1.0" id="Art" xmlns="http://www.w3.org/2000/svg" xmlns:xlink="http://www.w3.org/1999/xlink" x="0px" y="0px" width="32px" height="32px" viewBox="0 0 32 32" enable-background="new 0 0 32 32" xml:space="preserve">
<title id="title" lang="en">Slack</title>

<path fill="#716f7d" class="icons-background" d="M18.3,11.7l2.2,6.4l-6.7,2.2l-2.2-6.4L18.3,11.7z M31.9,17c-0.5-1.4-1.9-2.1-3.3-1.6l-3.2,1.1L23.2,10 L26.4,9c1.4-0.5,2.1-1.9,1.6-3.3c-0.5-1.4-1.9-2.1-3.3-1.6l-3.2,1.1l-1.1-3.4c-0.5-1.4-1.9-2.1-3.3-1.6c-1.4,0.5-2.1,1.9-1.6,3.3 l1.1,3.4L9.9,9L8.8,5.7C8.4,4.3,6.9,3.6,5.5,4C4.2,4.5,3.4,5.9,3.9,7.3L5,10.7l-3.2,1.1c-1.4,0.5-2.1,1.9-1.6,3.3 c0.4,1.1,1.3,1.7,2.4,1.8c0.3,0,0.6,0,0.9-0.1l3.2-1.1L8.8,22l-3.2,1.1c-1.4,0.5-2.1,1.9-1.6,3.3c0.4,1.1,1.3,1.7,2.4,1.8 c0.3,0,0.6,0,0.9-0.1l3.2-1.1l1.1,3.4c0.4,1.1,1.3,1.7,2.4,1.8c0.3,0,0.6,0,0.9-0.1c1.4-0.5,2.1-1.9,1.6-3.3l-1.1-3.4l6.7-2.2 l1.1,3.4c0.4,1.1,1.3,1.7,2.4,1.8c0.3,0,0.6,0,0.9-0.1c1.4-0.5,2.1-1.9,1.6-3.3L27,21.4l3.2-1.1C31.6,19.9,32.3,18.4,31.9,17z"/>
</svg>