<?xml version="1.0" encoding="utf-8"?>
<!DOCTYPE svg PUBLIC "-//W3C//DTD SVG 1.1//EN" "http://www.w3.org/Graphics/SVG/1.1/DTD/svg11.dtd">
<svg aria-labelledby="title" version="1.1" id="Art" xmlns="http://www.w3.org/2000/svg" xmlns:xlink="http://www.w3.org/1999/xlink" x="0px" y="0px" width="63px" height="16px" viewBox="0 0 63 16" enable-background="new 0 0 63 16" xml:space="preserve">
<title id="title" lang="en">Back to GEL</title>

<path class="letter" fill="#2D373E" d="M23,8.1V7.9C23,3.2,26.5,0,31.1,0c3.7,0,6.9,1.7,7.2,5.7h-4.4c-0.2-1.5-1.1-2.2-2.8-2.2 c-2.2,0-3.5,1.7-3.5,4.5v0.2c0,2.5,0.9,4.5,3.6,4.5c2.2,0,3-1.1,3.1-2.3h-2.9V7.2h7.3v1.9c0,3.9-2.6,6.9-7.6,6.9 C25.9,16,23,12.7,23,8.1"/>
<polygon class="letter" fill="#2D373E" points="40,0.2 40,15.7 51.1,15.7 51.1,12.3 44.4,12.3 44.4,9.5 49.4,9.5 49.4,6.3 44.4,6.3 44.4,3.7 50.7,3.7 50.7,0.2"/>
<polygon class="letter" fill="#2D373E" points="52.4,0.2 52.4,15.7 62.7,15.7 62.7,12.3 56.9,12.3 56.9,0.2"/>
<polygon class="arrow" fill="#2D373E" points="8,0 0,8 8,16 9,15 2,8 9,1 "/>
</svg>