<?xml version="1.0" encoding="utf-8"?>
<!DOCTYPE svg PUBLIC "-//W3C//DTD SVG 1.0//EN" "http://www.w3.org/TR/2001/REC-SVG-20010904/DTD/svg10.dtd">
<svg aria-labelledby="title" version="1.0" xmlns="http://www.w3.org/2000/svg" xmlns:xlink="http://www.w3.org/1999/xlink" x="0px" y="0px" width="1116px" height="540px" viewBox="0 0 1116 540" enable-background="new 0 0 1116 540" xml:space="preserve">
<title id="title" lang="en">GUI Blender</title>

<path fill="#FFFFFF" d="M522.6,231l11,99.6c1,11.4,11.2,20.4,22.6,20.4h20.4c11.4,0,21.6-9.1,22.6-20.5l7.1-78.9
	c1.3-11.2,2.7-19,2.7-19l0.3-1.6H522.6z"/>
<path fill="#EF9A9A" d="M587.6,286.6c0,0-7.5-8.2-17.1-8.9c-9.6-0.7-33.9,1.4-38.8-7.7c0,0-6.7,13.4-0.2,17.7
	C531.5,287.7,577.5,292.1,587.6,286.6z"/>
<path fill="#4DB6AC" d="M603.2,356h-73.4l-9.7,70c0,6.7,5.4,12.1,12.1,12.1h72.6c6.7,0,12-5.4,12-12.1L603.2,356z"/>
<path fill="#FFFFFF" d="M566.5,420.5c-11.8,0-21.3-9.5-21.3-21.3c0-9.9,6.8-18.3,16-20.6v18.9c0,2.9,2.4,5.3,5.3,5.3
	c2.9,0,5.3-2.4,5.3-5.3v-18.9c9.2,2.4,16,10.7,16,20.6C587.8,411,578.2,420.5,566.5,420.5z"/>
<path fill="#FFCDD2" d="M605,285.6c-2-2.2-8.5-7.9-21.3-8.9c-9.6-0.8-33.9,1.4-38.8-7.7c0,0-6.7,10.9-4.2,16.6h-14.2l8.1,51.9
	c1,7.8,10.8,14.2,21.8,14.2h21.1c11,0,20.8-6.4,21.8-14.2l6.6-51.9H605z"/>
<path fill="#4DB6AC" d="M609.6,145.2l-3.7-1.7l-4.3-2c1.6-3.3,0.1-7.3-3.2-8.8l-44.3-20.9c-3.3-1.6-7.3-0.1-8.8,3.2l-6.2-2.9
	c-8.9-4.2-18.1-4.5-22.6,5l-0.9,2L617.5,167l0.9-2C623.9,153.5,616.8,148.7,609.6,145.2z"/>
<path fill="#6D4C41" d="M630.9,244.7H619l2.6-24.1H510.1l14.4,121.6c1,10.6,10.5,19.3,21.1,19.3h41.6c10.7,0,20.2-8.7,21.1-19.3
	l3.1-28.6h19.3c7.8,0,14.1-6.3,14.1-14.1v-40.6C645,251,638.7,244.7,630.9,244.7z M576.6,349.8h-20.4c-10.7,0-20.2-8.7-21.1-19.3
	l-10.9-98.3h83.4c0,0-1.4,8-2.7,19.3l-7.1,79C596.8,341.1,587.3,349.8,576.6,349.8z M634.4,299.4c0,1.9-1.6,3.5-3.5,3.5h-18.2
	l5.2-47.7h13c1.9,0,3.5,1.6,3.5,3.5V299.4z"/>
<polygon fill="#B28B64" points="326,270 326,243 313,243 313,270 270,270 270,243 257,243 257,270 219,270 219,438 364,438 364,270"/>
<polygon fill="#CEA06C" points="257,243 270,230 313,230 326,243 "/>
<path fill="#8D6E63" d="M296,219c-0.3,0-0.6-0.1-0.9-0.2c-1-0.5-1.4-1.7-0.8-2.7c0.1-0.2,2.2-4.2,6.2-10.5c0.6-0.9,1.8-1.2,2.8-0.6
	c0.9,0.6,1.2,1.8,0.6,2.8c-3.9,6.2-6,10.2-6.1,10.2C297.4,218.6,296.7,219,296,219z M308.8,198.6c-0.4,0-0.8-0.1-1.1-0.4
	c-0.9-0.6-1.1-1.9-0.5-2.8c2.3-3.3,4.7-6.6,7.2-9.8c0.7-0.9,1.9-1,2.8-0.4c0.9,0.7,1,1.9,0.4,2.8c-2.4,3.1-4.8,6.3-7.1,9.6
	C310.1,198.3,309.5,198.6,308.8,198.6z M535.6,189.5c-0.6,0-1.1-0.2-1.5-0.7c-2.6-3.1-5.3-6.1-7.9-8.9c-0.7-0.8-0.7-2.1,0.1-2.8
	c0.8-0.7,2.1-0.7,2.8,0.1c2.6,2.9,5.3,5.9,8,9.1c0.7,0.8,0.6,2.1-0.2,2.8C536.5,189.3,536.1,189.5,535.6,189.5z M323.5,179.6
	c-0.5,0-0.9-0.2-1.3-0.5c-0.8-0.7-0.9-2-0.2-2.8c2.7-3.1,5.4-6.1,8.1-9c0.8-0.8,2-0.8,2.8-0.1c0.8,0.8,0.8,2,0.1,2.8
	c-2.7,2.8-5.4,5.8-8,8.9C324.7,179.4,324.1,179.6,323.5,179.6z M519.4,171.8c-0.5,0-1-0.2-1.4-0.6c-2.9-2.9-5.7-5.6-8.6-8.2
	c-0.8-0.7-0.9-2-0.1-2.8c0.7-0.8,2-0.9,2.8-0.1c2.9,2.6,5.8,5.5,8.7,8.4c0.8,0.8,0.8,2,0,2.8C520.4,171.6,519.9,171.8,519.4,171.8z
	 M340.1,162.2c-0.5,0-1.1-0.2-1.5-0.6c-0.8-0.8-0.7-2.1,0.1-2.8c3-2.8,6-5.5,9.1-8c0.9-0.7,2.1-0.6,2.8,0.3c0.7,0.9,0.6,2.1-0.3,2.8
	c-3,2.5-6,5.1-8.9,7.9C341,162,340.6,162.2,340.1,162.2z M501.6,155.7c-0.4,0-0.9-0.1-1.3-0.4c-3.1-2.5-6.3-5-9.4-7.2
	c-0.9-0.6-1.1-1.9-0.5-2.8c0.6-0.9,1.9-1.1,2.8-0.5c3.2,2.3,6.4,4.8,9.6,7.4c0.9,0.7,1,2,0.3,2.8
	C502.8,155.4,502.2,155.7,501.6,155.7z M358.6,146.9c-0.6,0-1.2-0.3-1.6-0.8c-0.6-0.9-0.4-2.1,0.5-2.8c3.4-2.4,6.8-4.6,10.2-6.7
	c0.9-0.6,2.2-0.3,2.7,0.7c0.6,0.9,0.3,2.2-0.7,2.7c-3.3,2-6.6,4.2-9.9,6.5C359.4,146.8,359,146.9,358.6,146.9z M482.1,141.8
	c-0.4,0-0.7-0.1-1-0.3c-3.4-2.1-6.9-4-10.3-5.7c-1-0.5-1.4-1.7-0.9-2.7c0.5-1,1.7-1.4,2.7-0.9c3.5,1.8,7.1,3.7,10.6,5.9
	c0.9,0.6,1.2,1.8,0.7,2.7C483.4,141.5,482.8,141.8,482.1,141.8z M379.2,134.6c-0.7,0-1.5-0.4-1.8-1.1c-0.5-1-0.1-2.2,0.9-2.7
	c3.7-1.8,7.5-3.4,11.3-4.7c1-0.4,2.2,0.2,2.6,1.2c0.4,1-0.2,2.2-1.2,2.6c-3.6,1.3-7.3,2.8-10.9,4.5
	C379.8,134.6,379.5,134.6,379.2,134.6z M460.6,131.2c-0.2,0-0.5,0-0.7-0.1c-3.7-1.4-7.5-2.6-11.2-3.6c-1.1-0.3-1.7-1.4-1.4-2.4
	c0.3-1.1,1.4-1.7,2.4-1.4c3.9,1,7.8,2.3,11.6,3.8c1,0.4,1.5,1.6,1.2,2.6C462.2,130.7,461.4,131.2,460.6,131.2z M401.7,126.6
	c-0.9,0-1.7-0.6-1.9-1.5c-0.2-1.1,0.4-2.2,1.5-2.4c4-0.9,8-1.6,12-2c1.1-0.1,2.1,0.7,2.2,1.8s-0.7,2.1-1.8,2.2
	c-3.8,0.4-7.7,1.1-11.6,2C402,126.6,401.9,126.6,401.7,126.6z M437.5,125.1c-0.1,0-0.2,0-0.3,0c-3.9-0.6-7.8-0.9-11.7-0.9
	c-1.1,0-2-1-2-2.1c0-1.1,0.9-2,2-2c0,0,0,0,0,0c4,0,8.1,0.5,12.2,1c1.1,0.2,1.9,1.2,1.7,2.3C439.3,124.3,438.4,125.1,437.5,125.1z"
	/>
<polygon fill="#8D6E63" points="521.2,195.7 521.7,191.8 541.3,194.5 542.5,174.8 546.5,175 545,199 "/>
<path fill="#8D6E63" d="M805.9,284.8c-0.9,0-1.6-0.6-1.9-1.4c-1.2-3.9-2.4-7.7-3.6-11.4c-0.3-1,0.2-2.2,1.3-2.5
	c1-0.3,2.2,0.2,2.5,1.3c1.2,3.7,2.5,7.6,3.7,11.5c0.3,1.1-0.3,2.2-1.3,2.5C806.3,284.8,806.1,284.8,805.9,284.8z M798.3,262
	c-0.8,0-1.6-0.5-1.9-1.3c-1.4-3.8-2.8-7.6-4.2-11.2c-0.4-1,0.1-2.2,1.1-2.6c1-0.4,2.2,0.1,2.6,1.1c1.4,3.6,2.9,7.4,4.3,11.3
	c0.4,1-0.2,2.2-1.2,2.6C798.8,262,798.5,262,798.3,262z M789.4,239.8c-0.8,0-1.5-0.4-1.8-1.2c-1.6-3.7-3.3-7.3-5-10.8
	c-0.5-1-0.1-2.2,0.9-2.7c1-0.5,2.2-0.1,2.7,0.9c1.7,3.5,3.4,7.2,5.1,10.9c0.4,1,0,2.2-1,2.6C789.9,239.7,789.7,239.8,789.4,239.8z
	 M778.8,218.3c-0.7,0-1.4-0.4-1.8-1c-2-3.5-4-7-6-10.2c-0.6-0.9-0.3-2.2,0.6-2.8c0.9-0.6,2.2-0.3,2.8,0.6c2.1,3.3,4.2,6.8,6.2,10.4
	c0.5,1,0.2,2.2-0.8,2.7C779.5,218.2,779.1,218.3,778.8,218.3z M595,214c-0.4,0-0.9-0.1-1.3-0.5c-0.9-0.7-1-2-0.3-2.8
	c0.1-0.1,3-3.7,8.3-9c0.8-0.8,2-0.8,2.8,0c0.8,0.8,0.8,2,0,2.8c-5.1,5.2-8,8.7-8,8.8C596.1,213.8,595.6,214,595,214z M766,198
	c-0.6,0-1.2-0.3-1.6-0.8c-2.4-3.3-4.9-6.4-7.3-9.3c-0.7-0.8-0.6-2.1,0.2-2.8c0.8-0.7,2.1-0.6,2.8,0.2c2.6,3,5.1,6.2,7.5,9.5
	c0.7,0.9,0.5,2.1-0.4,2.8C766.8,197.9,766.4,198,766,198z M611.8,196.7c-0.5,0-1.1-0.2-1.5-0.6c-0.7-0.8-0.7-2.1,0.1-2.8
	c3-2.8,6.1-5.4,9.2-8c0.9-0.7,2.1-0.6,2.8,0.3c0.7,0.9,0.6,2.1-0.3,2.8c-3,2.5-6,5.1-9,7.8C612.7,196.6,612.3,196.7,611.8,196.7z
	 M630.4,181.5c-0.6,0-1.2-0.3-1.6-0.8c-0.6-0.9-0.4-2.1,0.4-2.8c3.3-2.4,6.7-4.7,10.1-6.8c0.9-0.6,2.2-0.3,2.8,0.6s0.3,2.2-0.6,2.8
	c-3.3,2-6.6,4.3-9.8,6.6C631.2,181.4,630.8,181.5,630.4,181.5z M750.3,179.9c-0.5,0-1-0.2-1.4-0.5c-2.9-2.8-5.9-5.3-9-7.6
	c-0.9-0.7-1.1-1.9-0.4-2.8c0.7-0.9,1.9-1.1,2.8-0.4c3.2,2.4,6.3,5,9.3,7.9c0.8,0.8,0.8,2,0.1,2.8
	C751.3,179.7,750.8,179.9,750.3,179.9z M650.7,168.8c-0.7,0-1.4-0.4-1.8-1.1c-0.5-1-0.1-2.2,0.9-2.7c3.7-1.9,7.4-3.6,11.1-5.1
	c1-0.4,2.2,0.1,2.6,1.1c0.4,1-0.1,2.2-1.1,2.6c-3.5,1.4-7.1,3.1-10.7,5C651.4,168.8,651,168.8,650.7,168.8z M731.1,165.7
	c-0.3,0-0.7-0.1-1-0.2c-3.5-1.9-7-3.5-10.6-4.8c-1-0.4-1.6-1.5-1.2-2.6s1.5-1.6,2.6-1.2c3.8,1.4,7.6,3,11.2,5c1,0.5,1.3,1.7,0.8,2.7
	C732.5,165.3,731.8,165.7,731.1,165.7z M673,159.9c-0.9,0-1.7-0.6-1.9-1.5c-0.3-1.1,0.3-2.2,1.4-2.5c4-1.1,8.1-2,12-2.5
	c1.1-0.2,2.1,0.6,2.3,1.7c0.2,1.1-0.6,2.1-1.7,2.3c-3.8,0.5-7.6,1.4-11.5,2.4C673.3,159.9,673.1,159.9,673,159.9z M708.6,157.7
	c-0.1,0-0.2,0-0.3,0c-3.8-0.7-7.7-1-11.6-1.1c-1.1,0-2-0.7-2-1.8c0-1.1,0.9-1.8,2-1.8c0,0,0,0,0,0c4.1,0,8.3,0.2,12.3,0.9
	c1.1,0.2,1.8,1.1,1.6,2.2C710.4,157.1,709.5,157.7,708.6,157.7z"/>
<polygon fill="#8D6E63" points="789.3,284.8 791.3,281.4 808.3,291.4 817,273.7 820.6,275.5 810,297 "/>
<path fill="#E0D1C2" d="M244,348.8v-0.4c0-10.9,8-18.3,18.8-18.3c8.5,0,16,3.8,16.7,13.2h-10.2c-0.5-3.4-2.7-5.1-6.5-5.1
	c-5.1,0-8.1,3.9-8.1,10.4v0.4c0,5.8,2.1,10.3,8.4,10.3c5,0,6.9-2.6,7.1-5.4h-6.7v-7.2h16.8v4.4c0,9.1-6,16-17.5,16
	C250.6,367,244,359.5,244,348.8z"/>
<path fill="#E0D1C2" d="M285,351.9v-21.3h10.3v20.8c0,5.1,1.2,7.5,5.6,7.5c4.3,0,5.6-2.3,5.6-7.7v-20.7h10.4v21.1
	c0,10.4-6.1,15.3-16,15.3C290.8,367,285,361.9,285,351.9z"/>
<path fill="#E0D1C2" d="M323.6,330.6H334v35.8h-10.4V330.6z"/>
<path fill="#E0D1C2" d="M246.4,384.4v-0.2c0-3.5,2.2-5.9,5.4-5.9c2.7,0,5.2,1.6,5.2,5.7v0.6h-8.7c0.1,2.6,1.3,4.1,3.7,4.1
	c1.8,0,2.8-0.7,3.1-2h1.8c-0.4,2.3-2.3,3.5-4.9,3.5C248.8,390.2,246.4,387.9,246.4,384.4z M255.1,383.1c-0.2-2.4-1.4-3.3-3.3-3.3
	c-1.9,0-3.1,1.3-3.4,3.3H255.1z"/>
<path fill="#E0D1C2" d="M259.3,373h1.8v17h-1.8V373z"/>
<path fill="#E0D1C2" d="M263.3,384.4v-0.2c0-3.5,2.2-5.9,5.4-5.9c2.7,0,5.2,1.6,5.2,5.7v0.6h-8.7c0.1,2.6,1.3,4.1,3.7,4.1
	c1.8,0,2.8-0.7,3.1-2h1.8c-0.4,2.3-2.3,3.5-4.9,3.5C265.6,390.2,263.3,387.9,263.3,384.4z M272,383.1c-0.2-2.4-1.4-3.3-3.3-3.3
	c-1.9,0-3.1,1.3-3.4,3.3H272z"/>
<path fill="#E0D1C2" d="M275.9,378.5h1.8v1.8c0.5-1.1,1.8-2,3.4-2c1.5,0,2.8,0.6,3.4,2.2c0.8-1.5,2.5-2.2,3.9-2.2
	c2.1,0,3.9,1.2,3.9,4.6v7.1h-1.8v-7.3c0-2-0.9-2.9-2.4-2.9c-1.5,0-3,1-3,3.1v7h-1.8v-7.3c0-2-0.9-2.9-2.4-2.9c-1.5,0-3,1-3,3.1v7
	h-1.8V378.5z"/>
<path fill="#E0D1C2" d="M294.3,384.4v-0.2c0-3.5,2.2-5.9,5.4-5.9c2.7,0,5.2,1.6,5.2,5.7v0.6h-8.7c0.1,2.6,1.3,4.1,3.7,4.1
	c1.8,0,2.8-0.7,3.1-2h1.8c-0.4,2.3-2.3,3.5-4.9,3.5C296.7,390.2,294.3,387.9,294.3,384.4z M303,383.1c-0.2-2.4-1.4-3.3-3.3-3.3
	c-1.9,0-3.1,1.3-3.4,3.3H303z"/>
<path fill="#E0D1C2" d="M307.7,378.5h1.8v1.8c0.5-1.1,1.8-2,3.7-2c2.4,0,4,1.3,4,4.6v7.1h-1.8v-7.2c0-2-0.9-2.9-2.7-2.9
	c-1.7,0-3.2,1.1-3.2,3.1v7h-1.8V378.5z"/>
<path fill="#E0D1C2" d="M320.1,387.1V380h-1.7v-1.5h1.7v-2.6h1.8v2.6h2.7v1.5h-2.7v6.9c0,1.1,0.5,1.7,1.4,1.7c0.6,0,1-0.1,1.4-0.2
	v1.5c-0.4,0.1-0.8,0.2-1.6,0.2C321.1,390.2,320.1,388.9,320.1,387.1z"/>
<path fill="#E0D1C2" d="M326.5,386.5h1.8c0.1,1.4,0.9,2.2,2.7,2.2c1.7,0,2.5-0.6,2.5-1.8c0-1.2-0.9-1.6-2.7-1.9c-3-0.5-4-1.4-4-3.4
	c0-2.1,2.1-3.2,3.9-3.2c2.1,0,3.9,0.8,4.2,3.3h-1.8c-0.3-1.3-1-1.8-2.4-1.8c-1.3,0-2.2,0.7-2.2,1.7c0,1,0.6,1.5,2.7,1.8
	c2.4,0.4,4,1,4,3.4c0,2.1-1.4,3.5-4.2,3.5C328.2,390.2,326.6,388.8,326.5,386.5z"/>
<rect x="245.4" y="313" fill="#E0D1C2" width="92" height="6"/>
<rect x="245.4" y="400" fill="#E0D1C2" width="92" height="6"/>
<path fill="#FFFFFF" d="M863.4,325.4c0.6-0.6,0.8-1.4,0.5-2.2c-0.3-0.8-1-1.3-1.9-1.3h-92c-0.8,0-1.6,0.5-1.9,1.3
	c-0.3,0.8-0.1,1.6,0.5,2.2l45.4,43.4V431c-14.5,0.2-26,2.3-26,5c0,2.8,12.5,5,28,5s28-2.2,28-5c0-2.6-11.5-4.8-26-5v-62.2
	L863.4,325.4z"/>
<polygon fill="#FFA726" points="793,346 816,368 839,346 847.4,338 784.6,338 "/>
<line fill="none" stroke="#8D6E63" stroke-width="2" stroke-linecap="round" stroke-linejoin="round" stroke-miterlimit="10" x1="844.5" y1="301.5" x2="819.7" y2="349.5"/>
<circle fill="#D50000" cx="819.7" cy="349.5" r="9"/>
<circle fill="#F6CCCD" cx="815" cy="351" r="2"/>
<path fill="#5D4037" d="M217.9,486l-4.2-7.4h4l2.2,4.3l2.2-4.3h3.5l-4,7.4v5.5h-3.7V486z"/>
<path fill="#5D4037" d="M224.5,487v-0.1c0-3,2.3-4.9,5.2-4.9c2.9,0,5.1,1.9,5.1,4.8v0.1c0,3.1-2.3,4.9-5.1,4.9S224.5,490,224.5,487z
	M231.5,486.9v-0.1c0-1.6-0.6-2.5-1.9-2.5c-1.2,0-1.9,0.8-1.9,2.4v0.1c0,1.6,0.6,2.5,1.9,2.5C230.9,489.4,231.5,488.5,231.5,486.9z"/>
<path fill="#5D4037" d="M236.1,488.3v-6.1h3.2v5.6c0,1.1,0.4,1.6,1.3,1.6c1,0,1.6-0.6,1.6-1.8v-5.4h3.2v9.4h-3.2v-1.5
	c-0.5,1-1.4,1.7-3,1.7C237.5,491.8,236.1,490.7,236.1,488.3z"/>
<path fill="#5D4037" d="M247.4,482.1h3.2v1.9c0.6-1.4,1.6-2,3-2v3c-2-0.1-3,0.6-3,2.1v4.5h-3.2V482.1z"/>
<path fill="#5D4037" d="M259,478.7h3.7v12.9H259V478.7z"/>
<path fill="#5D4037" d="M265,482.1h3.2v1.5c0.5-1,1.5-1.8,3.1-1.8c1.8,0,3.1,1.1,3.1,3.5v6.1h-3.2v-5.5c0-1.1-0.4-1.6-1.4-1.6
	c-1,0-1.6,0.6-1.6,1.8v5.3H265V482.1z"/>
<path fill="#5D4037" d="M275.7,491.6h3.2c0.1,0.7,0.6,1.2,1.7,1.2c1.4,0,2-0.8,2-2v-1.4c-0.5,0.9-1.5,1.7-2.9,1.7
	c-2.2,0-4-1.6-4-4.5v-0.1c0-2.8,1.8-4.5,4-4.5c1.5,0,2.4,0.6,2.9,1.6v-1.3h3.2v8.6c0,2.8-1.9,4.3-5.2,4.3
	C277.4,495,276,493.7,275.7,491.6z M282.7,486.5v-0.1c0-1.3-0.7-2.1-1.9-2.1c-1.2,0-1.9,0.8-1.9,2.1v0.1c0,1.3,0.7,2.1,1.8,2.1
	S282.7,487.9,282.7,486.5z"/>
<path fill="#5D4037" d="M287.8,482.1h3.2v1.9c0.6-1.4,1.6-2,3-2v3c-2-0.1-3,0.6-3,2.1v4.5h-3.2V482.1z"/>
<path fill="#5D4037" d="M294.9,487v-0.1c0-3,2.3-4.9,5.1-4.9c2.6,0,4.8,1.5,4.8,4.9v0.8h-6.6c0.1,1.2,0.8,2,2,2
	c1.1,0,1.5-0.5,1.6-1.1h3c-0.3,2.1-1.9,3.3-4.8,3.3C297,491.8,294.9,490,294.9,487z M301.6,485.8c-0.1-1.1-0.6-1.8-1.7-1.8
	c-1,0-1.6,0.6-1.8,1.8H301.6z"/>
<path fill="#5D4037" d="M305.7,486.9v-0.1c0-3.2,1.8-4.9,4-4.9c1.5,0,2.4,0.6,2.9,1.6V478h3.2v13.6h-3.2V490c-0.5,1-1.5,1.7-2.9,1.7
	C307.5,491.8,305.7,490.2,305.7,486.9z M312.7,486.9v-0.1c0-1.6-0.7-2.4-1.9-2.4c-1.2,0-1.9,0.8-1.9,2.4v0.1c0,1.6,0.7,2.4,1.8,2.4
	C312,489.3,312.7,488.5,312.7,486.9z"/>
<path fill="#5D4037" d="M317.6,479.6c0-1,0.8-1.7,1.8-1.7s1.8,0.7,1.8,1.7s-0.8,1.7-1.8,1.7S317.6,480.5,317.6,479.6z M317.8,482.1
	h3.2v9.4h-3.2V482.1z"/>
<path fill="#5D4037" d="M322.5,487v-0.1c0-3,2.3-4.9,5.1-4.9c2.6,0,4.8,1.5,4.8,4.9v0.8h-6.6c0.1,1.2,0.8,2,2,2
	c1.1,0,1.5-0.5,1.6-1.1h3c-0.3,2.1-1.9,3.3-4.8,3.3C324.7,491.8,322.5,490,322.5,487z M329.3,485.8c-0.1-1.1-0.6-1.8-1.7-1.8
	c-1,0-1.6,0.6-1.8,1.8H329.3z"/>
<path fill="#5D4037" d="M333.8,482.1h3.2v1.5c0.5-1,1.5-1.8,3.1-1.8c1.8,0,3.1,1.1,3.1,3.5v6.1H340v-5.5c0-1.1-0.4-1.6-1.4-1.6
	c-1,0-1.6,0.6-1.6,1.8v5.3h-3.2V482.1z"/>
<path fill="#5D4037" d="M345.4,488.5v-4.2h-1.1v-2.2h1.1v-2h3.2v2h1.9v2.2h-1.9v3.9c0,0.7,0.3,1,1,1c0.4,0,0.6-0.1,0.9-0.2v2.4
	c-0.4,0.1-1,0.3-1.8,0.3C346.6,491.8,345.4,490.7,345.4,488.5z"/>
<path fill="#5D4037" d="M351.5,488.6h3c0.1,0.7,0.4,1.1,1.3,1.1c0.8,0,1.2-0.3,1.2-0.8c0-0.5-0.5-0.7-1.7-0.8
	c-2.5-0.3-3.6-1.1-3.6-3c0-2.1,1.9-3.1,4-3.1c2.3,0,3.9,0.8,4.2,3h-2.9c-0.1-0.6-0.5-0.9-1.2-0.9c-0.7,0-1.1,0.3-1.1,0.7
	c0,0.5,0.4,0.6,1.6,0.8c2.6,0.3,3.9,1,3.9,3c0,2.2-1.7,3.2-4.3,3.2C353.1,491.8,351.5,490.7,351.5,488.6z"/>
<path fill="#00695C" d="M516.3,481.5H513v-2.8h10.4v2.8h-3.3v10h-3.7V481.5z"/>
<path fill="#00695C" d="M524.7,478h3.2v5.7c0.5-1,1.5-1.8,3.1-1.8c1.8,0,3.1,1.1,3.1,3.5v6.1h-3.2v-5.5c0-1.1-0.4-1.6-1.4-1.6
	c-1,0-1.6,0.6-1.6,1.8v5.3h-3.2V478z"/>
<path fill="#00695C" d="M535.4,487v-0.1c0-3,2.3-4.9,5.1-4.9c2.6,0,4.8,1.5,4.8,4.9v0.8h-6.6c0.1,1.2,0.8,2,2,2
	c1.1,0,1.5-0.5,1.6-1.1h3c-0.3,2.1-1.9,3.3-4.8,3.3C537.6,491.8,535.4,490,535.4,487z M542.2,485.8c-0.1-1.1-0.6-1.8-1.7-1.8
	c-1,0-1.6,0.6-1.8,1.8H542.2z"/>
<path fill="#00695C" d="M550.5,478.7h5.7c3,0,4.3,1.4,4.3,3.4v0.1c0,1.4-0.7,2.4-2.2,2.8c1.6,0.3,2.6,1.2,2.6,3v0.1
	c0,2.3-1.5,3.6-4.7,3.6h-5.8V478.7z M555.6,483.8c1.2,0,1.6-0.4,1.6-1.3v-0.1c0-0.9-0.5-1.3-1.6-1.3h-1.4v2.7H555.6z M555.7,489.1
	c1.2,0,1.7-0.5,1.7-1.5v-0.1c0-1-0.5-1.5-1.8-1.5h-1.4v3H555.7z"/>
<path fill="#00695C" d="M562.6,478h3.2v13.6h-3.2V478z"/>
<path fill="#00695C" d="M567.3,487v-0.1c0-3,2.2-4.9,5.1-4.9c2.6,0,4.8,1.5,4.8,4.9v0.8h-6.6c0.1,1.2,0.8,2,2,2
	c1.1,0,1.5-0.5,1.6-1.1h3c-0.3,2.1-1.9,3.3-4.8,3.3C569.4,491.8,567.3,490,567.3,487z M574,485.8c-0.1-1.1-0.6-1.8-1.7-1.8
	c-1,0-1.6,0.6-1.8,1.8H574z"/>
<path fill="#00695C" d="M578.5,482.1h3.2v1.5c0.5-1,1.5-1.8,3.1-1.8c1.8,0,3.1,1.1,3.1,3.5v6.1h-3.2v-5.5c0-1.1-0.4-1.6-1.4-1.6
	c-1,0-1.6,0.6-1.6,1.8v5.3h-3.2V482.1z"/>
<path fill="#00695C" d="M589.3,486.9v-0.1c0-3.2,1.8-4.9,4-4.9c1.5,0,2.4,0.6,2.9,1.6V478h3.2v13.6h-3.2V490c-0.5,1-1.5,1.7-2.9,1.7
	C591.1,491.8,589.3,490.2,589.3,486.9z M596.3,486.9v-0.1c0-1.6-0.7-2.4-1.9-2.4c-1.2,0-1.9,0.8-1.9,2.4v0.1c0,1.6,0.7,2.4,1.8,2.4
	C595.6,489.3,596.3,488.5,596.3,486.9z"/>
<path fill="#00695C" d="M600.8,487v-0.1c0-3,2.2-4.9,5.1-4.9c2.6,0,4.8,1.5,4.8,4.9v0.8h-6.6c0.1,1.2,0.8,2,2,2
	c1.1,0,1.5-0.5,1.6-1.1h3c-0.3,2.1-1.9,3.3-4.8,3.3C603,491.8,600.8,490,600.8,487z M607.6,485.8c-0.1-1.1-0.6-1.8-1.7-1.8
	c-1,0-1.6,0.6-1.8,1.8H607.6z"/>
<path fill="#00695C" d="M612.1,482.1h3.2v1.9c0.6-1.4,1.6-2,3-2v3c-2-0.1-3,0.6-3,2.1v4.5h-3.2V482.1z"/>
<path fill="#F57F17" d="M756.9,486l-4.2-7.4h4l2.2,4.3l2.2-4.3h3.5l-4,7.4v5.5h-3.7V486z"/>
<path fill="#F57F17" d="M763.5,487v-0.1c0-3,2.3-4.9,5.2-4.9c2.9,0,5.1,1.9,5.1,4.8v0.1c0,3.1-2.2,4.9-5.1,4.9
	C765.7,491.8,763.5,490,763.5,487z M770.5,486.9v-0.1c0-1.6-0.6-2.5-1.9-2.5c-1.2,0-1.9,0.8-1.9,2.4v0.1c0,1.6,0.6,2.5,1.9,2.5
	C769.8,489.4,770.5,488.5,770.5,486.9z"/>
<path fill="#F57F17" d="M775.1,488.3v-6.1h3.2v5.6c0,1.1,0.4,1.6,1.3,1.6c1,0,1.6-0.6,1.6-1.8v-5.4h3.2v9.4h-3.2v-1.5
	c-0.5,1-1.4,1.7-3,1.7C776.5,491.8,775.1,490.7,775.1,488.3z"/>
<path fill="#F57F17" d="M786.4,482.1h3.2v1.9c0.6-1.4,1.6-2,3-2v3c-2-0.1-3,0.6-3,2.1v4.5h-3.2V482.1z"/>
<path fill="#F57F17" d="M797.2,485.2v-0.1c0-3.9,2.9-6.6,6.8-6.6c3,0,5.7,1.4,6,4.7h-3.7c-0.2-1.2-1-1.8-2.3-1.8
	c-1.8,0-2.9,1.4-2.9,3.7v0.1c0,2.1,0.8,3.7,3,3.7c1.8,0,2.5-0.9,2.6-1.9h-2.4v-2.6h6v1.6c0,3.3-2.1,5.7-6.3,5.7
	C799.6,491.8,797.2,489.1,797.2,485.2z"/>
<path fill="#F57F17" d="M812,486.3v-7.7h3.7v7.5c0,1.8,0.5,2.7,2,2.7c1.5,0,2-0.8,2-2.8v-7.4h3.7v7.6c0,3.7-2.2,5.5-5.7,5.5
	C814.1,491.8,812,489.9,812,486.3z"/>
<path fill="#F57F17" d="M825.9,478.7h3.7v12.9h-3.7V478.7z"/>
<path fill="#F57F17" d="M835.7,478.7h5.7c3,0,4.3,1.4,4.3,3.4v0.1c0,1.4-0.7,2.4-2.2,2.8c1.6,0.3,2.6,1.2,2.6,3v0.1
	c0,2.3-1.5,3.6-4.7,3.6h-5.8V478.7z M840.7,483.8c1.2,0,1.6-0.4,1.6-1.3v-0.1c0-0.9-0.5-1.3-1.6-1.3h-1.4v2.7H840.7z M840.9,489.1
	c1.2,0,1.7-0.5,1.7-1.5v-0.1c0-1-0.5-1.5-1.8-1.5h-1.4v3H840.9z"/>
<path fill="#F57F17" d="M847.8,478h3.2v13.6h-3.2V478z"/>
<path fill="#F57F17" d="M852.4,487v-0.1c0-3,2.3-4.9,5.1-4.9c2.6,0,4.8,1.5,4.8,4.9v0.8h-6.6c0.1,1.2,0.8,2,2,2
	c1.1,0,1.5-0.5,1.6-1.1h3c-0.3,2.1-1.9,3.3-4.8,3.3C854.6,491.8,852.4,490,852.4,487z M859.2,485.8c-0.1-1.1-0.6-1.8-1.7-1.8
	c-1,0-1.6,0.6-1.8,1.8H859.2z"/>
<path fill="#F57F17" d="M863.7,482.1h3.2v1.5c0.5-1,1.5-1.8,3.1-1.8c1.8,0,3.1,1.1,3.1,3.5v6.1h-3.2v-5.5c0-1.1-0.4-1.6-1.3-1.6
	c-1,0-1.6,0.6-1.6,1.8v5.3h-3.2V482.1z"/>
<path fill="#F57F17" d="M874.5,486.9v-0.1c0-3.2,1.8-4.9,4-4.9c1.5,0,2.4,0.6,2.9,1.6V478h3.2v13.6h-3.2V490c-0.5,1-1.5,1.7-2.9,1.7
	C876.3,491.8,874.5,490.2,874.5,486.9z M881.5,486.9v-0.1c0-1.6-0.7-2.4-1.9-2.4c-1.2,0-1.9,0.8-1.9,2.4v0.1c0,1.6,0.7,2.4,1.8,2.4
	C880.7,489.3,881.5,488.5,881.5,486.9z"/>
</svg>