<?xml version="1.0" encoding="utf-8"?>
<!-- Generator: Adobe Illustrator 19.0.0, SVG Export Plug-In . SVG Version: 6.00 Build 0)  -->
<svg version="1.1" id="Layer_1" xmlns="http://www.w3.org/2000/svg" xmlns:xlink="http://www.w3.org/1999/xlink" x="0px" y="0px"
	viewBox="0 0 960 560" style="enable-background:new 0 0 960 560;" xml:space="preserve">
<style type="text/css">
	.st0{fill:#FFFFFF;}
	.st1{fill:#EF9A9A;}
	.st2{fill:#FFCDD2;}
	.st3{fill:#4DB6AC;}
	.st4{fill:#6D4C41;}
	.st5{fill:#B28B64;}
	.st6{fill:#CEA06C;}
	.st7{fill:#8D6E63;}
	.st8{opacity:0.6;}
	.st9{opacity:0.6;fill:#FFFFFF;}
	.st10{fill:#FFA726;}
	.st11{fill:none;stroke:#8D6E63;stroke-width:2;stroke-linecap:round;stroke-linejoin:round;stroke-miterlimit:10;}
	.st12{fill:#D50000;}
	.st13{opacity:0.8;fill:#FFFFFF;}
	.st14{fill:#5D4037;}
	.st15{fill:#00695C;}
	.st16{fill:#F57F17;}
</style>
<g>
	<g>
		<path id="XMLID_129_" class="st0" d="M442.8,181l15.5,140.2c1.4,16,15.7,28.8,31.8,28.8h28.7c16.1,0,30.4-12.9,31.8-28.9l10-111
			c1.9-15.7,3.8-26.7,3.8-26.8l0.4-2.3H442.8z"/>
		<g>
			<g>
				<path id="XMLID_128_" class="st1" d="M534.3,259.3c0,0-10.5-11.5-24-12.5c-13.5-1-47.7,2-54.6-10.8c0,0-9.4,18.8-0.3,24.9
					C455.4,260.9,520,267,534.3,259.3z"/>
				<path id="XMLID_127_" class="st2" d="M559.8,259.1c0,0-8.6-11.9-30.9-13.7c-13.5-1.1-47.7,2-54.6-10.9c0,0-12.5,20.3-3.4,26.4
					C470.8,260.9,545.5,266.8,559.8,259.1z"/>
			</g>
			<path id="XMLID_126_" class="st3" d="M556.1,356.8H452.8l-13.6,98.4c0,9.4,7.6,17,17,17h102.1c9.4,0,16.9-7.6,16.9-17
				L556.1,356.8z"/>
			<g>
				<g id="XMLID_149_">
					<g id="XMLID_150_">
						<path id="XMLID_152_" class="st0" d="M504.5,447.7c-16.6,0-30-13.4-30-30c0-14,9.6-25.7,22.5-29v26.5c0,4.1,3.4,7.5,7.5,7.5
							c4.1,0,7.5-3.4,7.5-7.5v-26.5c12.9,3.3,22.5,15.1,22.5,29C534.5,434.2,521,447.7,504.5,447.7z"/>
					</g>
				</g>
			</g>
			<path id="XMLID_124_" class="st2" d="M448.3,257.9l11.4,72.9c1.4,11,15.2,20,30.7,20h29.7c15.5,0,29.3-9,30.7-20l9.3-72.9H448.3z
				"/>
			<path id="XMLID_123_" class="st3" d="M565.2,60.4l-5.2-2.4l-6.1-2.9c2.2-4.7,0.2-10.2-4.5-12.4l-62.3-29.4
				c-4.7-2.2-10.2-0.2-12.4,4.4l-8.8-4.1c-12.6-5.9-25.5-6.3-31.8,7l-1.3,2.8l143.3,67.6l1.3-2.8C585.2,72,575.3,65.4,565.2,60.4z"
				/>
			<path class="st4" d="M595.1,200.3h-16.6l3.7-34H425.3l20.2,171c1.4,15,14.7,27.2,29.7,27.2h58.6c15,0,28.4-12.2,29.7-27.2
				l4.4-40.2h27.2c11,0,19.9-8.9,19.9-19.9v-57.1C615,209.2,606,200.3,595.1,200.3z M518.8,348.2h-28.7c-15,0-28.4-12.2-29.7-27.2
				l-15.3-138.3h117.2c0,0-1.9,11.2-3.9,27.2l-10,111.1C547.2,335.9,533.8,348.2,518.8,348.2z M600.1,277.3c0,2.7-2.2,5-5,5h-25.6
				l7.3-67.1h18.3c2.7,0,5,2.3,5,5V277.3z"/>
		</g>
	</g>
	<rect id="XMLID_119_" x="16" y="236" class="st5" width="204" height="236"/>
	<rect id="XMLID_118_" x="69.2" y="198" class="st5" width="18.3" height="39.4"/>
	<rect id="XMLID_117_" x="148" y="198" class="st5" width="18.3" height="39.4"/>
	<polygon id="XMLID_116_" class="st6" points="69.2,198 87.5,179.7 148,179.7 166.3,198 	"/>
	<g>
		<path class="st7" d="M124.1,164.2c-0.4,0-0.9-0.1-1.3-0.3c-1.4-0.7-1.9-2.4-1.2-3.8c0.1-0.2,3.1-5.8,8.8-14.8
			c0.8-1.3,2.6-1.7,3.9-0.9c1.3,0.8,1.7,2.6,0.9,3.9c-5.5,8.7-8.5,14.4-8.5,14.4C126.1,163.7,125.1,164.2,124.1,164.2z M142.1,135.5
			c-0.6,0-1.1-0.2-1.6-0.5c-1.3-0.9-1.6-2.6-0.7-3.9c3.3-4.7,6.7-9.3,10.1-13.7c1-1.2,2.7-1.5,3.9-0.5c1.2,1,1.5,2.7,0.5,3.9
			c-3.4,4.4-6.7,8.9-10,13.5C143.9,135.1,143,135.5,142.1,135.5z M461.1,122.7c-0.8,0-1.6-0.3-2.1-1c-3.7-4.3-7.4-8.6-11.1-12.6
			c-1-1.1-1-2.9,0.2-4c1.1-1.1,2.9-1,4,0.2c3.7,4.1,7.5,8.3,11.2,12.7c1,1.2,0.9,3-0.3,4C462.4,122.5,461.7,122.7,461.1,122.7z
			 M162.8,108.8c-0.6,0-1.3-0.2-1.8-0.7c-1.2-1-1.3-2.8-0.3-4c3.7-4.4,7.6-8.6,11.4-12.7c1.1-1.1,2.9-1.2,4-0.1
			c1.1,1.1,1.2,2.8,0.1,4c-3.8,4-7.5,8.2-11.2,12.5C164.4,108.5,163.6,108.8,162.8,108.8z M438.3,97.8c-0.7,0-1.4-0.3-2-0.8
			c-4-4-8.1-7.9-12.1-11.6c-1.1-1-1.2-2.8-0.2-4c1-1.1,2.8-1.2,4-0.2c4.1,3.7,8.2,7.7,12.3,11.8c1.1,1.1,1.1,2.9,0,4
			C439.7,97.5,439,97.8,438.3,97.8z M186.1,84.3c-0.7,0-1.5-0.3-2-0.9c-1.1-1.1-1-2.9,0.1-4c4.2-4,8.5-7.8,12.8-11.3
			c1.2-1,3-0.8,4,0.4c1,1.2,0.8,3-0.4,4c-4.2,3.5-8.4,7.2-12.5,11.1C187.4,84,186.7,84.3,186.1,84.3z M413.3,75.1
			c-0.6,0-1.3-0.2-1.8-0.6c-4.4-3.6-8.9-7-13.3-10.1c-1.3-0.9-1.6-2.7-0.7-3.9c0.9-1.3,2.7-1.6,3.9-0.7c4.5,3.2,9.1,6.7,13.6,10.3
			c1.2,1,1.4,2.8,0.4,4C414.9,74.8,414.1,75.1,413.3,75.1z M212.1,62.8c-0.9,0-1.7-0.4-2.3-1.2c-0.9-1.3-0.6-3,0.7-3.9
			c4.7-3.4,9.5-6.5,14.3-9.4c1.3-0.8,3.1-0.4,3.9,1c0.8,1.3,0.4,3.1-1,3.9c-4.6,2.8-9.3,5.8-13.9,9.1
			C213.2,62.6,212.7,62.8,212.1,62.8z M385.8,55.6c-0.5,0-1-0.1-1.5-0.4c-4.8-2.9-9.7-5.6-14.6-8c-1.4-0.7-2-2.4-1.3-3.8
			c0.7-1.4,2.4-2,3.8-1.3c5,2.5,10,5.3,15,8.3c1.3,0.8,1.8,2.5,0.9,3.9C387.7,55.1,386.8,55.6,385.8,55.6z M241.1,45.6
			c-1,0-2.1-0.6-2.5-1.6c-0.7-1.4-0.1-3.1,1.3-3.8c5.2-2.5,10.6-4.7,15.8-6.6c1.5-0.5,3.1,0.2,3.6,1.7c0.5,1.5-0.2,3.1-1.7,3.6
			c-5.1,1.8-10.2,4-15.3,6.4C241.9,45.5,241.5,45.6,241.1,45.6z M355.6,40.7c-0.3,0-0.7-0.1-1-0.2c-5.2-2-10.5-3.7-15.8-5.1
			c-1.5-0.4-2.4-1.9-2-3.4c0.4-1.5,1.9-2.4,3.4-2c5.4,1.4,10.9,3.2,16.3,5.3c1.5,0.6,2.2,2.2,1.6,3.6
			C357.8,40,356.7,40.7,355.6,40.7z M272.8,34.3c-1.3,0-2.4-0.9-2.7-2.2c-0.4-1.5,0.6-3,2.1-3.4c5.6-1.3,11.3-2.3,16.9-2.9
			c1.5-0.2,2.9,1,3.1,2.5c0.2,1.5-1,2.9-2.5,3.1c-5.4,0.6-10.9,1.5-16.3,2.8C273.2,34.3,273,34.3,272.8,34.3z M323.1,32.1
			c-0.1,0-0.3,0-0.4,0c-5.5-0.8-11-1.2-16.5-1.3c-1.6,0-2.8-1.4-2.8-2.9c0-1.5,1.3-2.8,2.8-2.8c0,0,0,0,0.1,0
			c5.7,0,11.5,0.6,17.2,1.4c1.5,0.2,2.6,1.7,2.4,3.2C325.6,31,324.4,32.1,323.1,32.1z"/>
		<g>
			<polygon id="XMLID_102_" class="st7" points="440.8,131.5 441.6,125.9 469.1,129.7 470.8,102 476.5,102.4 474.3,136.1 			"/>
		</g>
	</g>
	<g>
		<path class="st7" d="M841.2,256.8c-1.2,0-2.3-0.8-2.7-2c-1.7-5.4-3.4-10.8-5.1-16c-0.5-1.5,0.3-3.1,1.8-3.6
			c1.5-0.5,3.1,0.3,3.6,1.8c1.7,5.2,3.5,10.7,5.1,16.1c0.5,1.5-0.4,3.1-1.9,3.5C841.8,256.7,841.5,256.8,841.2,256.8z M830.6,224.7
			c-1.1,0-2.2-0.7-2.6-1.9c-1.9-5.4-4-10.6-6-15.7c-0.6-1.4,0.1-3.1,1.6-3.7c1.4-0.6,3.1,0.1,3.7,1.6c2,5.1,4.1,10.4,6,15.8
			c0.5,1.5-0.2,3.1-1.7,3.6C831.2,224.7,830.9,224.7,830.6,224.7z M818.1,193.4c-1.1,0-2.1-0.6-2.6-1.7c-2.3-5.2-4.7-10.3-7.1-15.2
			c-0.7-1.4-0.1-3.1,1.3-3.8c1.4-0.7,3.1-0.1,3.8,1.3c2.4,4.9,4.8,10.1,7.2,15.4c0.6,1.4,0,3.1-1.4,3.7
			C818.8,193.3,818.5,193.4,818.1,193.4z M803.2,163.2c-1,0-2-0.5-2.5-1.5c-2.8-5-5.6-9.8-8.5-14.4c-0.8-1.3-0.4-3.1,0.9-3.9
			c1.3-0.8,3.1-0.4,3.9,0.9c2.9,4.6,5.8,9.6,8.7,14.7c0.8,1.4,0.3,3.1-1.1,3.8C804.1,163.1,803.6,163.2,803.2,163.2z M544.6,157.2
			c-0.6,0-1.3-0.2-1.8-0.6c-1.2-1-1.4-2.8-0.4-4c0.2-0.2,4.3-5.2,11.6-12.7c1.1-1.1,2.9-1.1,4,0c1.1,1.1,1.1,2.9,0,4
			c-7.2,7.3-11.2,12.3-11.3,12.3C546.3,156.8,545.4,157.2,544.6,157.2z M785.1,134.7c-0.9,0-1.7-0.4-2.3-1.2c-3.4-4.6-6.8-9-10.3-13
			c-1-1.2-0.9-3,0.3-4c1.2-1,3-0.9,4,0.3c3.6,4.2,7.2,8.7,10.6,13.4c0.9,1.3,0.6,3-0.6,3.9C786.3,134.5,785.7,134.7,785.1,134.7z
			 M568.2,132.9c-0.8,0-1.5-0.3-2.1-0.9c-1.1-1.1-1-2.9,0.2-4c4.2-3.9,8.6-7.6,12.9-11.2c1.2-1,3-0.8,4,0.4c1,1.2,0.8,3-0.4,4
			c-4.3,3.5-8.5,7.2-12.6,11C569.6,132.7,568.9,132.9,568.2,132.9z M594.4,111.5c-0.9,0-1.7-0.4-2.3-1.2c-0.9-1.3-0.6-3,0.6-3.9
			c4.7-3.4,9.5-6.6,14.2-9.6c1.3-0.8,3.1-0.4,3.9,0.9c0.8,1.3,0.4,3.1-0.9,3.9c-4.6,2.9-9.3,6-13.8,9.3
			C595.5,111.3,594.9,111.5,594.4,111.5z M763,109.3c-0.7,0-1.4-0.3-1.9-0.8c-4.1-3.9-8.3-7.5-12.6-10.7c-1.2-0.9-1.5-2.7-0.6-3.9
			c0.9-1.2,2.7-1.5,3.9-0.6c4.4,3.3,8.9,7.1,13.1,11.1c1.1,1.1,1.2,2.9,0.1,4C764.5,109,763.8,109.3,763,109.3z M623,93.7
			c-1,0-2-0.6-2.5-1.5c-0.7-1.4-0.2-3.1,1.2-3.8c5.2-2.7,10.4-5.1,15.6-7.2c1.4-0.6,3.1,0.1,3.7,1.6c0.6,1.4-0.1,3.1-1.6,3.7
			c-5,2-10,4.4-15.1,7C623.9,93.6,623.5,93.7,623,93.7z M736,89.2c-0.5,0-0.9-0.1-1.3-0.3c-4.9-2.7-9.9-4.9-15-6.7
			c-1.5-0.5-2.2-2.1-1.7-3.6c0.5-1.5,2.1-2.2,3.6-1.7c5.3,1.9,10.6,4.3,15.8,7.1c1.4,0.7,1.9,2.5,1.1,3.8
			C738,88.7,737,89.2,736,89.2z M654.3,81.1c-1.2,0-2.4-0.8-2.7-2.1c-0.4-1.5,0.5-3,1.9-3.5c5.7-1.6,11.3-2.8,16.8-3.6
			c1.5-0.2,3,0.8,3.2,2.4c0.2,1.5-0.8,3-2.4,3.2c-5.3,0.8-10.7,1.9-16.1,3.4C654.8,81.1,654.5,81.1,654.3,81.1z M704.4,78
			c-0.2,0-0.3,0-0.5,0c-5.3-0.9-10.8-1.4-16.3-1.5c-1.6,0-2.8-1.2-2.8-2.8c0-1.5,1.3-2.7,2.8-2.7c0,0,0,0,0,0
			c5.8,0,11.6,0.5,17.2,1.5c1.5,0.3,2.6,1.7,2.3,3.2C706.9,77.1,705.7,78,704.4,78z"/>
		<g>
			<polygon id="XMLID_88_" class="st7" points="817.9,256.8 820.7,252 844.7,266 856.9,241.1 862,243.6 847,273.9 			"/>
		</g>
	</g>
	<g>
		<g class="st8">
			<path class="st0" d="M50.9,346.7v-0.6c0-15.3,11.3-25.7,26.4-25.7c11.9,0,22.4,5.4,23.4,18.5H86.5c-0.7-4.7-3.7-7.2-9.1-7.2
				c-7.1,0-11.4,5.5-11.4,14.6v0.6c0,8.2,3,14.5,11.7,14.5c7,0,9.7-3.6,10-7.6h-9.4v-10.1h23.6v6.2c0,12.8-8.4,22.4-24.6,22.4
				C60.2,372.4,50.9,361.8,50.9,346.7z"/>
			<path class="st0" d="M108.6,351.1v-29.9H123v29.3c0,7.1,1.8,10.6,7.9,10.6c6,0,7.9-3.2,7.9-10.8v-29h14.6v29.7
				c0,14.6-8.6,21.5-22.4,21.5C116.7,372.4,108.6,365.2,108.6,351.1z"/>
			<path class="st0" d="M163,321.3h14.6v50.3H163V321.3z"/>
		</g>
		<g class="st8">
			<path class="st0" d="M54.4,396.8v-0.2c0-4.9,3.1-8.3,7.6-8.3c3.7,0,7.3,2.3,7.3,8v0.8H57c0.1,3.7,1.9,5.7,5.2,5.7
				c2.5,0,4-0.9,4.3-2.8h2.6c-0.6,3.2-3.2,5-6.9,5C57.6,405,54.4,401.8,54.4,396.8z M66.6,395.1c-0.2-3.3-2-4.7-4.6-4.7
				c-2.6,0-4.4,1.8-4.8,4.7H66.6z"/>
			<path class="st0" d="M72.5,380.8h2.6v23.9h-2.6V380.8z"/>
			<path class="st0" d="M78.1,396.8v-0.2c0-4.9,3.1-8.3,7.6-8.3c3.7,0,7.3,2.3,7.3,8v0.8H80.7c0.1,3.7,1.9,5.7,5.2,5.7
				c2.5,0,4-0.9,4.3-2.8h2.6c-0.6,3.2-3.2,5-6.9,5C81.3,405,78.1,401.8,78.1,396.8z M90.3,395.1c-0.2-3.3-2-4.7-4.6-4.7
				c-2.6,0-4.4,1.8-4.8,4.7H90.3z"/>
			<path class="st0" d="M95.8,388.6h2.6v2.5c0.7-1.5,2.5-2.8,4.8-2.8c2.1,0,3.9,0.9,4.7,3c1.1-2.1,3.5-3,5.5-3
				c2.9,0,5.4,1.7,5.4,6.4v10h-2.6v-10.2c0-2.8-1.2-4-3.4-4c-2.1,0-4.3,1.4-4.3,4.3v9.9h-2.6v-10.2c0-2.8-1.2-4-3.4-4
				c-2.1,0-4.3,1.4-4.3,4.3v9.9h-2.6V388.6z"/>
			<path class="st0" d="M121.8,396.8v-0.2c0-4.9,3.1-8.3,7.6-8.3c3.7,0,7.3,2.3,7.3,8v0.8h-12.2c0.1,3.7,1.9,5.7,5.2,5.7
				c2.5,0,4-0.9,4.3-2.8h2.6c-0.6,3.2-3.2,5-6.9,5C125,405,121.8,401.8,121.8,396.8z M134,395.1c-0.2-3.3-2-4.7-4.6-4.7
				c-2.6,0-4.4,1.8-4.8,4.7H134z"/>
			<path class="st0" d="M140.5,388.6h2.6v2.6c0.7-1.5,2.5-2.8,5.2-2.8c3.3,0,5.7,1.8,5.7,6.5v9.9h-2.6v-10.1c0-2.8-1.2-4.1-3.8-4.1
				c-2.4,0-4.5,1.5-4.5,4.4v9.8h-2.6V388.6z"/>
			<path class="st0" d="M158,400.7v-10h-2.3v-2.2h2.3v-3.7h2.6v3.7h3.8v2.2h-3.8v9.7c0,1.6,0.7,2.4,2,2.4c0.8,0,1.4-0.1,2-0.3v2.2
				c-0.5,0.2-1.1,0.3-2.2,0.3C159.4,405,158,403.2,158,400.7z"/>
			<path class="st0" d="M166.9,399.8h2.5c0.2,1.9,1.2,3.1,3.8,3.1c2.4,0,3.5-0.8,3.5-2.6c0-1.7-1.3-2.3-3.8-2.7
				c-4.2-0.8-5.6-1.9-5.6-4.8c0-3,2.9-4.5,5.5-4.5c2.9,0,5.4,1.2,5.9,4.7h-2.5c-0.4-1.8-1.4-2.5-3.4-2.5c-1.9,0-3.1,0.9-3.1,2.3
				c0,1.5,0.8,2,3.8,2.6c3.3,0.6,5.7,1.4,5.7,4.8c0,2.9-2,4.9-5.9,4.9C169.4,405,167.1,403.1,166.9,399.8z"/>
		</g>
		<rect id="XMLID_73_" x="53" y="296.4" class="st9" width="129.4" height="8.4"/>
		<rect id="XMLID_72_" x="53" y="418.8" class="st9" width="129.4" height="8.4"/>
	</g>
	<g>
		<g>
			<g>
				<path class="st0" d="M855.5,376.6c-0.7,0-1.4-0.3-1.9-0.8l-64.7-61.9c-0.8-0.8-1.1-2-0.7-3.1c0.4-1.1,1.5-1.8,2.6-1.8h129.4
					c1.1,0,2.2,0.7,2.6,1.8c0.4,1.1,0.2,2.3-0.7,3.1l-64.7,61.9C856.9,376.3,856.2,376.6,855.5,376.6z"/>
				<rect id="XMLID_70_" x="852.7" y="371" class="st0" width="5.6" height="95.6"/>
				<ellipse id="XMLID_69_" class="st0" cx="855.5" cy="469.4" rx="39.4" ry="7"/>
			</g>
			<g>
				<polygon id="XMLID_68_" class="st10" points="823.1,343.1 855.5,373.9 887.8,343.1 899.6,332 811.4,332 				"/>
			</g>
			<g>
				<line id="XMLID_67_" class="st11" x1="895.6" y1="280.3" x2="860.6" y2="347.7"/>
				<circle id="XMLID_66_" class="st12" cx="860.6" cy="347.7" r="12.7"/>
			</g>
		</g>
		<circle id="XMLID_65_" class="st13" cx="854.1" cy="349.9" r="2.8"/>
	</g>
	<g>
		<path class="st14" d="M14.2,539.8l-5.9-10.4H14l3.1,6.1l3.1-6.1h5l-5.6,10.4v7.7h-5.2V539.8z"/>
		<path class="st14" d="M23.5,541.1v-0.2c0-4.3,3.2-6.9,7.3-6.9c4.1,0,7.2,2.6,7.2,6.8v0.2c0,4.3-3.2,6.9-7.2,6.9
			S23.5,545.4,23.5,541.1z M33.4,541v-0.2c0-2.2-0.9-3.5-2.6-3.5c-1.7,0-2.6,1.2-2.6,3.4v0.2c0,2.3,0.9,3.5,2.6,3.5
			C32.5,544.5,33.4,543.2,33.4,541z"/>
		<path class="st14" d="M39.9,543v-8.6h4.5v7.9c0,1.5,0.6,2.2,1.9,2.2c1.4,0,2.3-0.8,2.3-2.5v-7.6h4.5v13.2h-4.5v-2.1
			c-0.7,1.4-2,2.4-4.2,2.4C41.8,547.9,39.9,546.3,39.9,543z"/>
		<path class="st14" d="M55.7,534.3h4.5v2.6c0.8-2,2.2-2.8,4.3-2.8v4.2c-2.8-0.1-4.3,0.8-4.3,2.9v6.3h-4.5V534.3z"/>
		<path class="st14" d="M72.1,529.5h5.2v18.1h-5.2V529.5z"/>
		<path class="st14" d="M80.5,534.3H85v2.1c0.7-1.4,2.2-2.5,4.4-2.5c2.6,0,4.3,1.6,4.3,5v8.6h-4.5v-7.7c0-1.5-0.6-2.2-1.9-2.2
			c-1.3,0-2.3,0.8-2.3,2.5v7.4h-4.5V534.3z"/>
		<path class="st14" d="M95.5,547.6h4.5c0.2,1,0.8,1.7,2.4,1.7c2,0,2.8-1.1,2.8-2.8v-2c-0.7,1.3-2.1,2.4-4.1,2.4
			c-3.1,0-5.6-2.3-5.6-6.4v-0.2c0-3.9,2.5-6.4,5.6-6.4c2.1,0,3.3,0.9,4.1,2.2v-1.9h4.5v12.1c0,4-2.6,6-7.3,6
			C98,552.5,95.9,550.6,95.5,547.6z M105.4,540.5v-0.2c0-1.8-0.9-3-2.6-3c-1.7,0-2.6,1.2-2.6,3v0.2c0,1.8,1,3,2.6,3
			S105.4,542.4,105.4,540.5z"/>
		<path class="st14" d="M112.5,534.3h4.5v2.6c0.8-2,2.2-2.8,4.3-2.8v4.2c-2.8-0.1-4.3,0.8-4.3,2.9v6.3h-4.5V534.3z"/>
		<path class="st14" d="M122.5,541.1v-0.2c0-4.3,3.2-6.9,7.2-6.9c3.6,0,6.7,2.1,6.7,6.8v1.2h-9.3c0.1,1.7,1.1,2.8,2.8,2.8
			c1.5,0,2.1-0.7,2.3-1.6h4.3c-0.4,3-2.7,4.7-6.7,4.7C125.5,547.9,122.5,545.5,122.5,541.1z M132,539.5c-0.1-1.6-0.9-2.5-2.3-2.5
			c-1.4,0-2.3,0.9-2.5,2.5H132z"/>
		<path class="st14" d="M137.7,541.1v-0.2c0-4.5,2.5-6.9,5.6-6.9c2.1,0,3.3,0.9,4.1,2.2v-7.7h4.5v19.1h-4.5v-2.2
			c-0.7,1.4-2.1,2.5-4.1,2.5C140.2,547.9,137.7,545.7,137.7,541.1z M147.5,541v-0.2c0-2.2-0.9-3.4-2.6-3.4c-1.7,0-2.6,1.1-2.6,3.4
			v0.2c0,2.2,1,3.4,2.6,3.4C146.5,544.4,147.5,543.3,147.5,541z"/>
		<path class="st14" d="M154.5,530.7c0-1.3,1.1-2.4,2.5-2.4c1.4,0,2.5,1,2.5,2.4c0,1.3-1.1,2.3-2.5,2.3
			C155.6,533.1,154.5,532.1,154.5,530.7z M154.7,534.3h4.5v13.2h-4.5V534.3z"/>
		<path class="st14" d="M161.4,541.1v-0.2c0-4.3,3.2-6.9,7.2-6.9c3.6,0,6.7,2.1,6.7,6.8v1.2H166c0.1,1.7,1.1,2.8,2.8,2.8
			c1.5,0,2.1-0.7,2.3-1.6h4.3c-0.4,3-2.7,4.7-6.7,4.7C164.4,547.9,161.4,545.5,161.4,541.1z M170.9,539.5c-0.1-1.6-0.9-2.5-2.3-2.5
			c-1.4,0-2.3,0.9-2.5,2.5H170.9z"/>
		<path class="st14" d="M177.2,534.3h4.5v2.1c0.7-1.4,2.2-2.5,4.4-2.5c2.6,0,4.3,1.6,4.3,5v8.6h-4.5v-7.7c0-1.5-0.6-2.2-1.9-2.2
			c-1.3,0-2.3,0.8-2.3,2.5v7.4h-4.5V534.3z"/>
		<path class="st14" d="M193.6,543.3v-5.9H192v-3.1h1.6v-2.8h4.5v2.8h2.6v3.1h-2.6v5.5c0,1,0.5,1.4,1.3,1.4c0.5,0,0.9-0.1,1.3-0.2
			v3.4c-0.6,0.2-1.4,0.4-2.5,0.4C195.3,547.9,193.6,546.4,193.6,543.3z"/>
		<path class="st14" d="M202.1,543.4h4.2c0.2,1,0.6,1.5,1.9,1.5c1.1,0,1.6-0.4,1.6-1.1c0-0.6-0.6-0.9-2.5-1.2c-3.5-0.5-5-1.5-5-4.3
			c0-2.9,2.6-4.4,5.7-4.4c3.3,0,5.5,1.1,5.9,4.3h-4.1c-0.2-0.9-0.7-1.3-1.7-1.3c-1,0-1.5,0.4-1.5,1c0,0.6,0.6,0.9,2.2,1.1
			c3.7,0.5,5.4,1.4,5.4,4.3c0,3.1-2.3,4.6-6,4.6C204.4,547.9,202.2,546.3,202.1,543.4z"/>
	</g>
	<g>
		<path class="st15" d="M434,533.5h-4.7v-4h14.6v4h-4.7v14.1H434V533.5z"/>
		<path class="st15" d="M445.8,528.5h4.5v8c0.7-1.4,2.2-2.5,4.4-2.5c2.6,0,4.3,1.6,4.3,5v8.6h-4.5v-7.7c0-1.5-0.6-2.2-1.9-2.2
			c-1.3,0-2.3,0.8-2.3,2.5v7.4h-4.5V528.5z"/>
		<path class="st15" d="M460.9,541.1v-0.2c0-4.3,3.2-6.9,7.2-6.9c3.6,0,6.7,2.1,6.7,6.8v1.2h-9.3c0.1,1.7,1.1,2.8,2.8,2.8
			c1.5,0,2.1-0.7,2.3-1.6h4.3c-0.4,3-2.7,4.7-6.7,4.7C463.9,547.9,460.9,545.5,460.9,541.1z M470.4,539.5c-0.1-1.6-0.9-2.5-2.3-2.5
			c-1.4,0-2.3,0.9-2.5,2.5H470.4z"/>
		<path class="st15" d="M482.1,529.5h8.1c4.3,0,6.1,1.9,6.1,4.7v0.1c0,2-1,3.4-3.1,3.9c2.2,0.4,3.6,1.7,3.6,4.2v0.1
			c0,3.2-2.1,5-6.6,5h-8.2V529.5z M489.1,536.7c1.6,0,2.2-0.6,2.2-1.8v-0.1c0-1.2-0.7-1.8-2.2-1.8h-2v3.7H489.1z M489.3,544.1
			c1.6,0,2.4-0.8,2.4-2.1v-0.1c0-1.4-0.7-2.1-2.6-2.1h-2v4.3H489.3z"/>
		<path class="st15" d="M499,528.5h4.5v19.1H499V528.5z"/>
		<path class="st15" d="M505.6,541.1v-0.2c0-4.3,3.2-6.9,7.2-6.9c3.6,0,6.7,2.1,6.7,6.8v1.2h-9.3c0.1,1.7,1.1,2.8,2.8,2.8
			c1.5,0,2.1-0.7,2.3-1.6h4.3c-0.4,3-2.7,4.7-6.7,4.7C508.7,547.9,505.6,545.5,505.6,541.1z M515.1,539.5c-0.1-1.6-0.9-2.5-2.3-2.5
			c-1.4,0-2.3,0.9-2.5,2.5H515.1z"/>
		<path class="st15" d="M521.5,534.3h4.5v2.1c0.7-1.4,2.2-2.5,4.4-2.5c2.6,0,4.3,1.6,4.3,5v8.6h-4.5v-7.7c0-1.5-0.6-2.2-1.9-2.2
			c-1.3,0-2.3,0.8-2.3,2.5v7.4h-4.5V534.3z"/>
		<path class="st15" d="M536.6,541.1v-0.2c0-4.5,2.5-6.9,5.6-6.9c2.1,0,3.3,0.9,4.1,2.2v-7.7h4.5v19.1h-4.5v-2.2
			c-0.7,1.4-2.1,2.5-4.1,2.5C539.1,547.9,536.6,545.7,536.6,541.1z M546.4,541v-0.2c0-2.2-0.9-3.4-2.6-3.4c-1.7,0-2.6,1.1-2.6,3.4
			v0.2c0,2.2,1,3.4,2.6,3.4C545.4,544.4,546.4,543.3,546.4,541z"/>
		<path class="st15" d="M552.8,541.1v-0.2c0-4.3,3.2-6.9,7.2-6.9c3.6,0,6.7,2.1,6.7,6.8v1.2h-9.3c0.1,1.7,1.1,2.8,2.8,2.8
			c1.5,0,2.1-0.7,2.3-1.6h4.3c-0.4,3-2.7,4.7-6.7,4.7C555.9,547.9,552.8,545.5,552.8,541.1z M562.3,539.5c-0.1-1.6-0.9-2.5-2.3-2.5
			c-1.4,0-2.3,0.9-2.5,2.5H562.3z"/>
		<path class="st15" d="M568.7,534.3h4.5v2.6c0.8-2,2.2-2.8,4.3-2.8v4.2c-2.8-0.1-4.3,0.8-4.3,2.9v6.3h-4.5V534.3z"/>
	</g>
	<g>
		<path class="st16" d="M772.3,539.8l-5.9-10.4h5.6l3.1,6.1l3.1-6.1h5l-5.6,10.4v7.7h-5.2V539.8z"/>
		<path class="st16" d="M781.6,541.1v-0.2c0-4.3,3.2-6.9,7.3-6.9c4.1,0,7.2,2.6,7.2,6.8v0.2c0,4.3-3.2,6.9-7.2,6.9
			C784.8,547.9,781.6,545.4,781.6,541.1z M791.5,541v-0.2c0-2.2-0.9-3.5-2.6-3.5c-1.7,0-2.6,1.2-2.6,3.4v0.2c0,2.3,0.9,3.5,2.6,3.5
			C790.6,544.5,791.5,543.2,791.5,541z"/>
		<path class="st16" d="M798,543v-8.6h4.5v7.9c0,1.5,0.6,2.2,1.9,2.2c1.4,0,2.3-0.8,2.3-2.5v-7.6h4.5v13.2h-4.5v-2.1
			c-0.7,1.4-2,2.4-4.2,2.4C799.9,547.9,798,546.3,798,543z"/>
		<path class="st16" d="M813.8,534.3h4.5v2.6c0.8-2,2.2-2.8,4.3-2.8v4.2c-2.8-0.1-4.3,0.8-4.3,2.9v6.3h-4.5V534.3z"/>
		<path class="st16" d="M829.1,538.6v-0.2c0-5.5,4.1-9.2,9.5-9.2c4.3,0,8.1,2,8.4,6.7h-5.1c-0.3-1.7-1.3-2.6-3.3-2.6
			c-2.6,0-4.1,2-4.1,5.2v0.2c0,2.9,1.1,5.2,4.2,5.2c2.5,0,3.5-1.3,3.6-2.7H839v-3.6h8.5v2.2c0,4.6-3,8.1-8.9,8.1
			C832.4,547.9,829.1,544.1,829.1,538.6z"/>
		<path class="st16" d="M849.9,540.2v-10.8h5.2V540c0,2.6,0.6,3.8,2.8,3.8c2.2,0,2.8-1.2,2.8-3.9v-10.5h5.2v10.7
			c0,5.3-3.1,7.7-8.1,7.7C852.8,547.9,849.9,545.3,849.9,540.2z"/>
		<path class="st16" d="M869.4,529.5h5.2v18.1h-5.2V529.5z"/>
		<path class="st16" d="M883.2,529.5h8.1c4.3,0,6.1,1.9,6.1,4.7v0.1c0,2-1,3.4-3.1,3.9c2.2,0.4,3.6,1.7,3.6,4.2v0.1
			c0,3.2-2.1,5-6.6,5h-8.2V529.5z M890.3,536.7c1.6,0,2.2-0.6,2.2-1.8v-0.1c0-1.2-0.7-1.8-2.2-1.8h-2v3.7H890.3z M890.5,544.1
			c1.6,0,2.4-0.8,2.4-2.1v-0.1c0-1.4-0.7-2.1-2.6-2.1h-2v4.3H890.5z"/>
		<path class="st16" d="M900.1,528.5h4.5v19.1h-4.5V528.5z"/>
		<path class="st16" d="M906.8,541.1v-0.2c0-4.3,3.2-6.9,7.2-6.9c3.6,0,6.7,2.1,6.7,6.8v1.2h-9.3c0.1,1.7,1.1,2.8,2.8,2.8
			c1.5,0,2.1-0.7,2.3-1.6h4.3c-0.4,3-2.7,4.7-6.7,4.7C909.8,547.9,906.8,545.5,906.8,541.1z M916.2,539.5c-0.1-1.6-0.9-2.5-2.3-2.5
			c-1.4,0-2.3,0.9-2.5,2.5H916.2z"/>
		<path class="st16" d="M922.6,534.3h4.5v2.1c0.7-1.4,2.2-2.5,4.4-2.5c2.6,0,4.3,1.6,4.3,5v8.6h-4.5v-7.7c0-1.5-0.6-2.2-1.9-2.2
			c-1.3,0-2.3,0.8-2.3,2.5v7.4h-4.5V534.3z"/>
		<path class="st16" d="M937.7,541.1v-0.2c0-4.5,2.5-6.9,5.6-6.9c2.1,0,3.3,0.9,4.1,2.2v-7.7h4.5v19.1h-4.5v-2.2
			c-0.7,1.4-2.1,2.5-4.1,2.5C940.2,547.9,937.7,545.7,937.7,541.1z M947.6,541v-0.2c0-2.2-0.9-3.4-2.6-3.4c-1.7,0-2.6,1.1-2.6,3.4
			v0.2c0,2.2,1,3.4,2.6,3.4C946.6,544.4,947.6,543.3,947.6,541z"/>
	</g>
</g>
</svg>
