<?xml version="1.0" encoding="utf-8"?>
<!DOCTYPE svg PUBLIC "-//W3C//DTD SVG 1.0//EN" "http://www.w3.org/TR/2001/REC-SVG-20010904/DTD/svg10.dtd">
<svg aria-labelledby="title" version="1.0" xmlns="http://www.w3.org/2000/svg" xmlns:xlink="http://www.w3.org/1999/xlink" x="0px" y="0px" width="100%" height="100%" viewBox="0 0 671 386" enable-background="new 0 0 671 386" xml:space="preserve">
<title id="title" lang="en">GUI Blender</title>

<path class="theblender" fill="#FFFFFF" d="M308.9,122l11,99.6c1,11.4,11.2,20.4,22.6,20.4h20.4c11.4,0,21.6-9.2,22.6-20.6l7.1-78.9 c1.3-11.2,2.7-18.9,2.7-19l0.3-1.5H308.9z"/>
<path class="theblender" fill="#EF9A9A" d="M373.9,177.5c0,0-7.5-8.2-17.1-8.9c-9.6-0.7-33.9,1.4-38.8-7.7c0,0-6.7,13.4-0.2,17.7 C317.8,178.6,363.7,183,373.9,177.5z"/>
<path class="theblender" fill="#4DB6AC" d="M389.4,246.8H316l-9.7,70c0,6.7,5.4,12.1,12.1,12.1H391c6.7,0,12-5.4,12-12.1L389.4,246.8z"/>
<path class="theblender" fill="#FFFFFF" d="M352.7,311.4c-11.8,0-21.3-9.5-21.3-21.3c0-9.9,6.8-18.3,16-20.6v18.9c0,2.9,2.4,5.3,5.3,5.3 c2.9,0,5.3-2.4,5.3-5.3v-18.9c9.2,2.4,16,10.7,16,20.6C374.1,301.8,364.5,311.4,352.7,311.4z"/>
<path class="theblender" fill="#FFCDD2" d="M391.3,176.4c-2-2.2-8.5-7.9-21.3-8.9c-9.6-0.8-33.9,1.4-38.8-7.7c0,0-6.7,10.9-4.2,16.6h-14.2l8.1,51.9 c1,7.8,10.8,14.2,21.8,14.2h21.1c11,0,20.8-6.4,21.8-14.2l6.6-51.9H391.3z"/>
<path class="theblender" fill="#4DB6AC" d="M395.9,36.1l-3.7-1.7l-4.3-2c1.6-3.3,0.1-7.3-3.2-8.8L340.5,2.6c-3.3-1.6-7.3-0.1-8.8,3.2l-6.2-2.9 c-8.9-4.2-18.1-4.5-22.6,5l-0.9,2l101.9,48.1l0.9-2C410.1,44.3,403.1,39.6,395.9,36.1z"/>
<path class="theblender" fill="#6D4C41" d="M417.1,135.5h-11.8l2.6-24.1H296.4L310.8,233c1,10.6,10.5,19.3,21.1,19.3h41.6c10.7,0,20.2-8.7,21.1-19.3 l3.1-28.6h19.3c7.8,0,14.1-6.3,14.1-14.1v-40.6C431.3,141.9,424.9,135.5,417.1,135.5z M362.9,240.6h-20.4 c-10.7,0-20.2-8.7-21.1-19.3L310.5,123h83.4c0,0-1.4,8-2.7,19.3l-7.1,79C383.1,231.9,373.6,240.6,362.9,240.6z M420.7,190.3 c0,1.9-1.6,3.5-3.5,3.5H399l5.2-47.7h13c1.9,0,3.5,1.6,3.5,3.5V190.3z"/>
<polygon class="thebag" fill="#B28B64" points="112,161 112,134 99,134 99,161 56,161 56,134 43,134 43,161 5,161 5,329 150,329 150,161"/>
<polygon class="thebag" fill="#CEA06C" points="43.3,133.9 56.3,120.9 99.3,120.9 112.3,133.9"/>
<path class="thearrowleft" fill="#8D6E63" d="M82.3,109.9c-0.3,0-0.6-0.1-0.9-0.2c-1-0.5-1.4-1.7-0.8-2.7c0.1-0.2,2.2-4.2,6.2-10.5 c0.6-0.9,1.8-1.2,2.8-0.6c0.9,0.6,1.2,1.8,0.6,2.8c-3.9,6.2-6,10.2-6.1,10.2C83.7,109.5,83,109.9,82.3,109.9z M95.1,89.5 c-0.4,0-0.8-0.1-1.1-0.4c-0.9-0.6-1.1-1.9-0.5-2.8c2.3-3.3,4.7-6.6,7.2-9.8c0.7-0.9,1.9-1,2.8-0.4c0.9,0.7,1,1.9,0.4,2.8 c-2.4,3.1-4.8,6.3-7.1,9.6C96.4,89.2,95.7,89.5,95.1,89.5z M321.9,80.3c-0.6,0-1.1-0.2-1.5-0.7c-2.6-3.1-5.3-6.1-7.9-8.9 c-0.7-0.8-0.7-2.1,0.1-2.8c0.8-0.7,2.1-0.7,2.8,0.1c2.6,2.9,5.3,5.9,8,9.1c0.7,0.8,0.6,2.1-0.2,2.8 C322.8,80.2,322.3,80.3,321.9,80.3z M109.8,70.5c-0.5,0-0.9-0.2-1.3-0.5c-0.8-0.7-0.9-2-0.2-2.8c2.7-3.1,5.4-6.1,8.1-9 c0.8-0.8,2-0.8,2.8-0.1c0.8,0.8,0.8,2,0.1,2.8c-2.7,2.8-5.4,5.8-8,8.9C110.9,70.2,110.4,70.5,109.8,70.5z M305.7,62.6 c-0.5,0-1-0.2-1.4-0.6c-2.9-2.9-5.7-5.6-8.6-8.2c-0.8-0.7-0.9-2-0.1-2.8c0.7-0.8,2-0.9,2.8-0.1c2.9,2.6,5.8,5.5,8.7,8.4 c0.8,0.8,0.8,2,0,2.8C306.7,62.5,306.2,62.6,305.7,62.6z M126.3,53c-0.5,0-1.1-0.2-1.5-0.6c-0.8-0.8-0.7-2.1,0.1-2.8 c3-2.8,6-5.5,9.1-8c0.9-0.7,2.1-0.6,2.8,0.3c0.7,0.9,0.6,2.1-0.3,2.8c-3,2.5-6,5.1-8.9,7.9C127.3,52.9,126.8,53,126.3,53z  M287.9,46.5c-0.4,0-0.9-0.1-1.3-0.4c-3.1-2.5-6.3-5-9.4-7.2c-0.9-0.6-1.1-1.9-0.5-2.8c0.6-0.9,1.9-1.1,2.8-0.5 c3.2,2.3,6.4,4.8,9.6,7.4c0.9,0.7,1,2,0.3,2.8C289.1,46.3,288.5,46.5,287.9,46.5z M144.8,37.8c-0.6,0-1.2-0.3-1.6-0.8 c-0.6-0.9-0.4-2.1,0.5-2.8c3.4-2.4,6.8-4.6,10.2-6.7c0.9-0.6,2.2-0.3,2.7,0.7c0.6,0.9,0.3,2.2-0.7,2.7c-3.3,2-6.6,4.2-9.9,6.5 C145.7,37.6,145.3,37.8,144.8,37.8z M268.4,32.7c-0.4,0-0.7-0.1-1-0.3c-3.4-2.1-6.9-4-10.3-5.7c-1-0.5-1.4-1.7-0.9-2.7 c0.5-1,1.7-1.4,2.7-0.9c3.5,1.8,7.1,3.7,10.6,5.9c0.9,0.6,1.2,1.8,0.7,2.7C269.7,32.3,269,32.7,268.4,32.7z M165.5,25.5 c-0.7,0-1.5-0.4-1.8-1.1c-0.5-1-0.1-2.2,0.9-2.7c3.7-1.8,7.5-3.4,11.3-4.7c1-0.4,2.2,0.2,2.6,1.2c0.4,1-0.2,2.2-1.2,2.6 c-3.6,1.3-7.3,2.8-10.9,4.5C166,25.4,165.7,25.5,165.5,25.5z M246.9,22c-0.2,0-0.5,0-0.7-0.1c-3.7-1.4-7.5-2.6-11.2-3.6 c-1.1-0.3-1.7-1.4-1.4-2.4c0.3-1.1,1.4-1.7,2.4-1.4c3.9,1,7.8,2.3,11.6,3.8c1,0.4,1.5,1.6,1.2,2.6C248.4,21.5,247.7,22,246.9,22z  M188,17.5c-0.9,0-1.7-0.6-1.9-1.5c-0.2-1.1,0.4-2.2,1.5-2.4c4-0.9,8-1.6,12-2c1.1-0.1,2.1,0.7,2.2,1.8s-0.7,2.1-1.8,2.2 c-3.8,0.4-7.7,1.1-11.6,2C188.3,17.5,188.2,17.5,188,17.5z M223.7,15.9c-0.1,0-0.2,0-0.3,0c-3.9-0.6-7.8-0.9-11.7-0.9 c-1.1,0-2-0.9-2-2c0-1.1,0.9-1.9,2-1.9c0,0,0,0,0,0c4,0,8.1,0.4,12.2,1c1.1,0.2,1.9,1.2,1.7,2.3C225.6,15.2,224.7,15.9,223.7,15.9 z"/>
<polygon class="thearrowleft" fill="#8D6E63" points="307.5,86.6 308,82.6 327.6,85.3 328.8,65.6 332.8,65.9 331.3,89.9"/>
<path class="thearrowright" fill="#8D6E63" d="M592.2,175.6c-0.9,0-1.6-0.6-1.9-1.4c-1.2-3.9-2.4-7.7-3.6-11.4c-0.3-1,0.2-2.2,1.3-2.5 c1-0.3,2.2,0.2,2.5,1.3c1.2,3.7,2.5,7.6,3.7,11.5c0.3,1.1-0.3,2.2-1.3,2.5C592.5,175.6,592.3,175.6,592.2,175.6z M584.6,152.9 c-0.8,0-1.6-0.5-1.9-1.3c-1.4-3.8-2.8-7.6-4.2-11.2c-0.4-1,0.1-2.2,1.1-2.6c1-0.4,2.2,0.1,2.6,1.1c1.4,3.6,2.9,7.4,4.3,11.3 c0.4,1-0.2,2.2-1.2,2.6C585,152.8,584.8,152.9,584.6,152.9z M575.7,130.6c-0.8,0-1.5-0.4-1.8-1.2c-1.6-3.7-3.3-7.3-5-10.8 c-0.5-1-0.1-2.2,0.9-2.7c1-0.5,2.2-0.1,2.7,0.9c1.7,3.5,3.4,7.2,5.1,10.9c0.4,1,0,2.2-1,2.6C576.2,130.6,576,130.6,575.7,130.6z  M565.1,109.1c-0.7,0-1.4-0.4-1.8-1c-2-3.5-4-7-6-10.2c-0.6-0.9-0.3-2.2,0.6-2.8c0.9-0.6,2.2-0.3,2.8,0.6 c2.1,3.3,4.2,6.8,6.2,10.4c0.5,1,0.2,2.2-0.8,2.7C565.7,109,565.4,109.1,565.1,109.1z M381.3,104.9c-0.4,0-0.9-0.1-1.3-0.5 c-0.9-0.7-1-2-0.3-2.8c0.1-0.1,3-3.7,8.3-9c0.8-0.8,2-0.8,2.8,0c0.8,0.8,0.8,2,0,2.8c-5.1,5.2-8,8.7-8,8.8 C382.4,104.6,381.9,104.9,381.3,104.9z M552.3,88.9c-0.6,0-1.2-0.3-1.6-0.8c-2.4-3.3-4.9-6.4-7.3-9.3c-0.7-0.8-0.6-2.1,0.2-2.8 c0.8-0.7,2.1-0.6,2.8,0.2c2.6,3,5.1,6.2,7.5,9.5c0.7,0.9,0.5,2.1-0.4,2.8C553.1,88.7,552.7,88.9,552.3,88.9z M398.1,87.6 c-0.5,0-1.1-0.2-1.5-0.6c-0.7-0.8-0.7-2.1,0.1-2.8c3-2.8,6.1-5.4,9.2-8c0.9-0.7,2.1-0.6,2.8,0.3c0.7,0.9,0.6,2.1-0.3,2.8 c-3,2.5-6,5.1-9,7.8C399,87.4,398.5,87.6,398.1,87.6z M416.6,72.4c-0.6,0-1.2-0.3-1.6-0.8c-0.6-0.9-0.4-2.1,0.4-2.8 c3.3-2.4,6.7-4.7,10.1-6.8c0.9-0.6,2.2-0.3,2.8,0.6s0.3,2.2-0.6,2.8c-3.3,2-6.6,4.3-9.8,6.6C417.4,72.3,417,72.4,416.6,72.4z  M536.6,70.8c-0.5,0-1-0.2-1.4-0.5c-2.9-2.8-5.9-5.3-9-7.6c-0.9-0.7-1.1-1.9-0.4-2.8c0.7-0.9,1.9-1.1,2.8-0.4 c3.2,2.4,6.3,5,9.3,7.9c0.8,0.8,0.8,2,0.1,2.8C537.6,70.6,537.1,70.8,536.6,70.8z M437,59.7c-0.7,0-1.4-0.4-1.8-1.1 c-0.5-1-0.1-2.2,0.9-2.7c3.7-1.9,7.4-3.6,11.1-5.1c1-0.4,2.2,0.1,2.6,1.1c0.4,1-0.1,2.2-1.1,2.6c-3.5,1.4-7.1,3.1-10.7,5 C437.6,59.6,437.3,59.7,437,59.7z M517.3,56.5c-0.3,0-0.7-0.1-1-0.2c-3.5-1.9-7-3.5-10.6-4.8c-1-0.4-1.6-1.5-1.2-2.6 s1.5-1.6,2.6-1.2c3.8,1.4,7.6,3,11.2,5c1,0.5,1.3,1.7,0.8,2.7C518.7,56.2,518,56.5,517.3,56.5z M459.2,50.8 c-0.9,0-1.7-0.6-1.9-1.5c-0.3-1.1,0.3-2.2,1.4-2.5c4-1.1,8.1-2,12-2.5c1.1-0.2,2.1,0.6,2.3,1.7c0.2,1.1-0.6,2.1-1.7,2.3 c-3.8,0.5-7.6,1.4-11.5,2.4C459.6,50.7,459.4,50.8,459.2,50.8z M494.8,48.6c-0.1,0-0.2,0-0.3,0c-3.8-0.7-7.7-1-11.6-1.1 c-1.1,0-2-0.7-2-1.8c0-1.1,0.9-1.7,2-1.7c0,0,0,0,0,0c4.1,0,8.3,0.2,12.3,0.9c1.1,0.2,1.8,1.1,1.6,2.2 C496.6,48,495.8,48.6,494.8,48.6z"/>
<polygon class="thearrowright" fill="#8D6E63" points="575.6,175.7 577.6,172.2 594.6,182.2 603.3,164.5 606.9,166.3 596.3,187.9"/>
<path class="thebag thebag-label" fill="#E0D1C2" d="M30.3,239.6v-0.4c0-10.9,8-18.3,18.8-18.3c8.5,0,16,3.8,16.7,13.2H55.5c-0.5-3.4-2.7-5.1-6.5-5.1 c-5.1,0-8.1,3.9-8.1,10.4v0.4c0,5.8,2.1,10.3,8.4,10.3c5,0,6.9-2.6,7.1-5.4h-6.7v-7.2h16.8v4.4c0,9.1-6,16-17.5,16 C36.9,257.9,30.3,250.3,30.3,239.6z"/>
<path class="thebag thebag-label" fill="#E0D1C2" d="M71.3,242.8v-21.3h10.3v20.8c0,5.1,1.2,7.5,5.6,7.5c4.3,0,5.6-2.3,5.6-7.7v-20.7h10.4v21.1 c0,10.4-6.1,15.3-16,15.3C77,257.9,71.3,252.8,71.3,242.8z"/>
<path class="thebag thebag-label" fill="#E0D1C2" d="M109.9,221.5h10.4v35.8h-10.4V221.5z"/>
<path class="thebag thebag-label" fill="#E0D1C2" d="M32.7,275.2v-0.2c0-3.5,2.2-5.9,5.4-5.9c2.7,0,5.2,1.6,5.2,5.7v0.6h-8.7c0.1,2.6,1.3,4.1,3.7,4.1 c1.8,0,2.8-0.7,3.1-2h1.8c-0.4,2.3-2.3,3.5-4.9,3.5C35,281.1,32.7,278.8,32.7,275.2z M41.4,274c-0.2-2.4-1.4-3.3-3.3-3.3 c-1.9,0-3.1,1.3-3.4,3.3H41.4z"/>
<path class="thebag thebag-label" fill="#E0D1C2" d="M45.6,263.9h1.8v17h-1.8V263.9z"/>
<path class="thebag thebag-label" fill="#E0D1C2" d="M49.6,275.2v-0.2c0-3.5,2.2-5.9,5.4-5.9c2.7,0,5.2,1.6,5.2,5.7v0.6h-8.7c0.1,2.6,1.3,4.1,3.7,4.1 c1.8,0,2.8-0.7,3.1-2H60c-0.4,2.3-2.3,3.5-4.9,3.5C51.9,281.1,49.6,278.8,49.6,275.2z M58.3,274c-0.2-2.4-1.4-3.3-3.3-3.3 c-1.9,0-3.1,1.3-3.4,3.3H58.3z"/>
<path class="thebag thebag-label" fill="#E0D1C2" d="M62.2,269.4H64v1.8c0.5-1.1,1.8-2,3.4-2c1.5,0,2.8,0.6,3.4,2.2c0.8-1.5,2.5-2.2,3.9-2.2 c2.1,0,3.9,1.2,3.9,4.6v7.1h-1.8v-7.3c0-2-0.9-2.9-2.4-2.9c-1.5,0-3,1-3,3.1v7h-1.8v-7.3c0-2-0.9-2.9-2.4-2.9c-1.5,0-3,1-3,3.1v7 h-1.8V269.4z"/>
<path class="thebag thebag-label" fill="#E0D1C2" d="M80.6,275.2v-0.2c0-3.5,2.2-5.9,5.4-5.9c2.7,0,5.2,1.6,5.2,5.7v0.6h-8.7c0.1,2.6,1.3,4.1,3.7,4.1 c1.8,0,2.8-0.7,3.1-2h1.8c-0.4,2.3-2.3,3.5-4.9,3.5C82.9,281.1,80.6,278.8,80.6,275.2z M89.3,274c-0.2-2.4-1.4-3.3-3.3-3.3 c-1.9,0-3.1,1.3-3.4,3.3H89.3z"/>
<path class="thebag thebag-label" fill="#E0D1C2" d="M94,269.4h1.8v1.8c0.5-1.1,1.8-2,3.7-2c2.4,0,4,1.3,4,4.6v7.1h-1.8v-7.2c0-2-0.9-2.9-2.7-2.9 c-1.7,0-3.2,1.1-3.2,3.1v7H94V269.4z"/>
<path class="thebag thebag-label" fill="#E0D1C2" d="M106.4,278v-7.1h-1.7v-1.5h1.7v-2.6h1.8v2.6h2.7v1.5h-2.7v6.9c0,1.1,0.5,1.7,1.4,1.7c0.6,0,1-0.1,1.4-0.2 v1.5c-0.4,0.1-0.8,0.2-1.6,0.2C107.4,281,106.4,279.8,106.4,278z"/>
<path class="thebag thebag-label" fill="#E0D1C2" d="M112.7,277.3h1.8c0.1,1.4,0.9,2.2,2.7,2.2c1.7,0,2.5-0.6,2.5-1.8c0-1.2-0.9-1.6-2.7-1.9 c-3-0.5-4-1.4-4-3.4c0-2.1,2.1-3.2,3.9-3.2c2.1,0,3.9,0.8,4.2,3.3h-1.8c-0.3-1.3-1-1.8-2.4-1.8c-1.3,0-2.2,0.7-2.2,1.7 c0,1,0.6,1.5,2.7,1.8c2.4,0.4,4,1,4,3.4c0,2.1-1.4,3.5-4.2,3.5C114.5,281.1,112.8,279.7,112.7,277.3z"/>
<rect class="thebag thebag-label" x="31.7" y="203.9" fill="#E0D1C2" width="92" height="6"/>
<rect class="thebag thebag-label" x="31.7" y="290.9" fill="#E0D1C2" width="92" height="6"/>
<g>
	<path class="theglas" fill="#FFFFFF" d="M649.5,216.3c0.6-0.6,0.8-1.4,0.5-2.1c-0.3-0.8-1-1.2-1.8-1.2h-92c-0.8,0-1.6,0.4-1.9,1.2 c-0.3,0.8-0.3,1.6,0.3,2.2l45.2,43.4v62.2c-14,0.2-25.9,2.3-25.9,5c0,2.8,12.6,5,28.1,5s27.9-2.2,27.9-5c0-2.6-11.1-4.8-26.1-5 v-62.2L649.5,216.3z"/>
	<polygon class="theglas" fill="#FFA726" points="579.3,236.9 602.3,258.9 625.3,236.9 633.6,229 570.9,229"/>
		<line class="theglas theglas-stroke" fill="none" stroke="#8D6E63" stroke-width="2" stroke-linecap="round" stroke-linejoin="round" stroke-miterlimit="10" x1="630.8" y1="192.4" x2="605.9" y2="240.3"/>
	<circle class="theglas" fill="#D50000" cx="605.9" cy="240.3" r="9"/>
	<circle class="theglas" fill="#F6CCCD" cx="601.3" cy="241.9" r="2"/>
</g>
<path class="thebag thebag-text" fill="#5D4037" d="M4.2,376.9L0,369.5h4l2.2,4.3l2.2-4.3h3.5l-4,7.4v5.5H4.2V376.9z"/>
<path class="thebag thebag-text" fill="#5D4037" d="M10.8,377.8v-0.1c0-3,2.3-4.9,5.2-4.9c2.9,0,5.1,1.9,5.1,4.8v0.1c0,3.1-2.3,4.9-5.1,4.9 S10.8,380.9,10.8,377.8z M17.8,377.8v-0.1c0-1.6-0.6-2.5-1.9-2.5c-1.2,0-1.9,0.8-1.9,2.4v0.1c0,1.6,0.6,2.5,1.9,2.5 C17.2,380.2,17.8,379.3,17.8,377.8z"/>
<path class="thebag thebag-text" fill="#5D4037" d="M22.4,379.1V373h3.2v5.6c0,1.1,0.4,1.6,1.3,1.6c1,0,1.6-0.6,1.6-1.8V373h3.2v9.4h-3.2V381 c-0.5,1-1.4,1.7-3,1.7C23.8,382.6,22.4,381.5,22.4,379.1z"/>
<path class="thebag thebag-text" fill="#5D4037" d="M33.7,373h3.2v1.9c0.6-1.4,1.6-2,3-2v3c-2-0.1-3,0.6-3,2.1v4.5h-3.2V373z"/>
<path class="thebag thebag-text" fill="#5D4037" d="M45.3,369.5H49v12.9h-3.7V369.5z"/>
<path class="thebag thebag-text" fill="#5D4037" d="M51.3,373h3.2v1.5c0.5-1,1.5-1.8,3.1-1.8c1.8,0,3.1,1.1,3.1,3.5v6.1h-3.2v-5.5c0-1.1-0.4-1.6-1.4-1.6 c-1,0-1.6,0.6-1.6,1.8v5.3h-3.2V373z"/>
<path class="thebag thebag-text" fill="#5D4037" d="M62,382.4h3.2c0.1,0.7,0.6,1.2,1.7,1.2c1.4,0,2-0.8,2-2v-1.4c-0.5,0.9-1.5,1.7-2.9,1.7c-2.2,0-4-1.6-4-4.5 v-0.1c0-2.8,1.8-4.5,4-4.5c1.5,0,2.4,0.6,2.9,1.6V373h3.2v8.6c0,2.8-1.9,4.3-5.2,4.3C63.7,385.9,62.2,384.6,62,382.4z M69,377.4 v-0.1c0-1.3-0.7-2.1-1.9-2.1c-1.2,0-1.9,0.8-1.9,2.1v0.1c0,1.3,0.7,2.1,1.8,2.1S69,378.7,69,377.4z"/>
<path class="thebag thebag-text" fill="#5D4037" d="M74.1,373h3.2v1.9c0.6-1.4,1.6-2,3-2v3c-2-0.1-3,0.6-3,2.1v4.5h-3.2V373z"/>
<path class="thebag thebag-text" fill="#5D4037" d="M81.2,377.8v-0.1c0-3,2.3-4.9,5.1-4.9c2.6,0,4.8,1.5,4.8,4.9v0.8h-6.6c0.1,1.2,0.8,2,2,2 c1.1,0,1.5-0.5,1.6-1.1h3c-0.3,2.1-1.9,3.3-4.8,3.3C83.3,382.6,81.2,380.9,81.2,377.8z M87.9,376.6c-0.1-1.1-0.6-1.8-1.7-1.8 c-1,0-1.6,0.6-1.8,1.8H87.9z"/>
<path class="thebag thebag-text" fill="#5D4037" d="M92,377.8v-0.1c0-3.2,1.8-4.9,4-4.9c1.5,0,2.4,0.6,2.9,1.6v-5.5h3.2v13.6h-3.2v-1.5 c-0.5,1-1.5,1.7-2.9,1.7C93.7,382.6,92,381.1,92,377.8z M98.9,377.7v-0.1c0-1.6-0.7-2.4-1.9-2.4c-1.2,0-1.9,0.8-1.9,2.4v0.1 c0,1.6,0.7,2.4,1.8,2.4C98.2,380.2,98.9,379.3,98.9,377.7z"/>
<path class="thebag thebag-text" fill="#5D4037" d="M103.9,370.4c0-1,0.8-1.7,1.8-1.7s1.8,0.7,1.8,1.7s-0.8,1.7-1.8,1.7S103.9,371.4,103.9,370.4z M104.1,373 h3.2v9.4h-3.2V373z"/>
<path class="thebag thebag-text" fill="#5D4037" d="M108.8,377.8v-0.1c0-3,2.3-4.9,5.1-4.9c2.6,0,4.8,1.5,4.8,4.9v0.8h-6.6c0.1,1.2,0.8,2,2,2 c1.1,0,1.5-0.5,1.6-1.1h3c-0.3,2.1-1.9,3.3-4.8,3.3C111,382.6,108.8,380.9,108.8,377.8z M115.5,376.6c-0.1-1.1-0.6-1.8-1.7-1.8 c-1,0-1.6,0.6-1.8,1.8H115.5z"/>
<path class="thebag thebag-text" fill="#5D4037" d="M120.1,373h3.2v1.5c0.5-1,1.5-1.8,3.1-1.8c1.8,0,3.1,1.1,3.1,3.5v6.1h-3.2v-5.5c0-1.1-0.4-1.6-1.4-1.6 c-1,0-1.6,0.6-1.6,1.8v5.3h-3.2V373z"/>
<path class="thebag thebag-text" fill="#5D4037" d="M131.7,379.4v-4.2h-1.1V373h1.1v-2h3.2v2h1.9v2.2h-1.9v3.9c0,0.7,0.3,1,1,1c0.4,0,0.6-0.1,0.9-0.2v2.4 c-0.4,0.1-1,0.3-1.8,0.3C132.9,382.6,131.7,381.6,131.7,379.4z"/>
<path class="thebag thebag-text" fill="#5D4037" d="M137.8,379.4h3c0.1,0.7,0.4,1.1,1.3,1.1c0.8,0,1.2-0.3,1.2-0.8c0-0.5-0.5-0.7-1.7-0.8 c-2.5-0.3-3.6-1.1-3.6-3c0-2.1,1.9-3.1,4-3.1c2.3,0,3.9,0.8,4.2,3h-2.9c-0.1-0.6-0.5-0.9-1.2-0.9c-0.7,0-1.1,0.3-1.1,0.7 c0,0.5,0.4,0.6,1.6,0.8c2.6,0.3,3.9,1,3.9,3c0,2.2-1.7,3.2-4.3,3.2C139.4,382.6,137.8,381.5,137.8,379.4z"/>
<path class="theblender theblender-text" fill="#00695C" d="M302.6,372.4h-3.3v-2.8h10.4v2.8h-3.3v10h-3.7V372.4z"/>
<path class="theblender theblender-text" fill="#00695C" d="M311,368.9h3.2v5.7c0.5-1,1.5-1.8,3.1-1.8c1.8,0,3.1,1.1,3.1,3.5v6.1h-3.2v-5.5c0-1.1-0.4-1.6-1.4-1.6 c-1,0-1.6,0.6-1.6,1.8v5.3H311V368.9z"/>
<path class="theblender theblender-text" fill="#00695C" d="M321.7,377.8v-0.1c0-3,2.3-4.9,5.1-4.9c2.6,0,4.8,1.5,4.8,4.9v0.8H325c0.1,1.2,0.8,2,2,2 c1.1,0,1.5-0.5,1.6-1.1h3c-0.3,2.1-1.9,3.3-4.8,3.3C323.9,382.6,321.7,380.9,321.7,377.8z M328.5,376.6c-0.1-1.1-0.6-1.8-1.7-1.8 c-1,0-1.6,0.6-1.8,1.8H328.5z"/>
<path class="theblender theblender-text" fill="#00695C" d="M336.8,369.5h5.7c3,0,4.3,1.4,4.3,3.4v0.1c0,1.4-0.7,2.4-2.2,2.8c1.6,0.3,2.6,1.2,2.6,3v0.1 c0,2.3-1.5,3.6-4.7,3.6h-5.8V369.5z M341.8,374.6c1.2,0,1.6-0.4,1.6-1.3v-0.1c0-0.9-0.5-1.3-1.6-1.3h-1.4v2.7H341.8z M342,379.9 c1.2,0,1.7-0.5,1.7-1.5v-0.1c0-1-0.5-1.5-1.8-1.5h-1.4v3H342z"/>
<path class="theblender theblender-text" fill="#00695C" d="M348.8,368.9h3.2v13.6h-3.2V368.9z"/>
<path class="theblender theblender-text" fill="#00695C" d="M353.5,377.8v-0.1c0-3,2.2-4.9,5.1-4.9c2.6,0,4.8,1.5,4.8,4.9v0.8h-6.6c0.1,1.2,0.8,2,2,2 c1.1,0,1.5-0.5,1.6-1.1h3c-0.3,2.1-1.9,3.3-4.8,3.3C355.7,382.6,353.5,380.9,353.5,377.8z M360.3,376.6c-0.1-1.1-0.6-1.8-1.7-1.8 c-1,0-1.6,0.6-1.8,1.8H360.3z"/>
<path class="theblender theblender-text" fill="#00695C" d="M364.8,373h3.2v1.5c0.5-1,1.5-1.8,3.1-1.8c1.8,0,3.1,1.1,3.1,3.5v6.1H371v-5.5c0-1.1-0.4-1.6-1.4-1.6 c-1,0-1.6,0.6-1.6,1.8v5.3h-3.2V373z"/>
<path class="theblender theblender-text" fill="#00695C" d="M375.6,377.8v-0.1c0-3.2,1.8-4.9,4-4.9c1.5,0,2.4,0.6,2.9,1.6v-5.5h3.2v13.6h-3.2v-1.5 c-0.5,1-1.5,1.7-2.9,1.7C377.4,382.6,375.6,381.1,375.6,377.8z M382.6,377.7v-0.1c0-1.6-0.7-2.4-1.9-2.4c-1.2,0-1.9,0.8-1.9,2.4 v0.1c0,1.6,0.7,2.4,1.8,2.4C381.8,380.2,382.6,379.3,382.6,377.7z"/>
<path class="theblender theblender-text" fill="#00695C" d="M387.1,377.8v-0.1c0-3,2.2-4.9,5.1-4.9c2.6,0,4.8,1.5,4.8,4.9v0.8h-6.6c0.1,1.2,0.8,2,2,2 c1.1,0,1.5-0.5,1.6-1.1h3c-0.3,2.1-1.9,3.3-4.8,3.3C389.3,382.6,387.1,380.9,387.1,377.8z M393.8,376.6c-0.1-1.1-0.6-1.8-1.7-1.8 c-1,0-1.6,0.6-1.8,1.8H393.8z"/>
<path class="theblender theblender-text" fill="#00695C" d="M398.4,373h3.2v1.9c0.6-1.4,1.6-2,3-2v3c-2-0.1-3,0.6-3,2.1v4.5h-3.2V373z"/>
<path class="theglas theglas-text" fill="#F57F17" d="M543.2,376.9l-4.2-7.4h4l2.2,4.3l2.2-4.3h3.5l-4,7.4v5.5h-3.7V376.9z"/>
<path class="theglas theglas-text" fill="#F57F17" d="M549.8,377.8v-0.1c0-3,2.3-4.9,5.2-4.9c2.9,0,5.1,1.9,5.1,4.8v0.1c0,3.1-2.2,4.9-5.1,4.9 C552,382.6,549.8,380.9,549.8,377.8z M556.8,377.8v-0.1c0-1.6-0.6-2.5-1.9-2.5c-1.2,0-1.9,0.8-1.9,2.4v0.1c0,1.6,0.6,2.5,1.9,2.5 C556.1,380.2,556.8,379.3,556.8,377.8z"/>
<path class="theglas theglas-text" fill="#F57F17" d="M561.4,379.1V373h3.2v5.6c0,1.1,0.4,1.6,1.3,1.6c1,0,1.6-0.6,1.6-1.8V373h3.2v9.4h-3.2V381 c-0.5,1-1.4,1.7-3,1.7C562.7,382.6,561.4,381.5,561.4,379.1z"/>
<path class="theglas theglas-text" fill="#F57F17" d="M572.7,373h3.2v1.9c0.6-1.4,1.6-2,3-2v3c-2-0.1-3,0.6-3,2.1v4.5h-3.2V373z"/>
<path class="theglas theglas-text" fill="#F57F17" d="M583.5,376.1v-0.1c0-3.9,2.9-6.6,6.8-6.6c3,0,5.7,1.4,6,4.7h-3.7c-0.2-1.2-1-1.8-2.3-1.8 c-1.8,0-2.9,1.4-2.9,3.7v0.1c0,2.1,0.8,3.7,3,3.7c1.8,0,2.5-0.9,2.6-1.9h-2.4v-2.6h6v1.6c0,3.3-2.1,5.7-6.3,5.7 C585.9,382.6,583.5,379.9,583.5,376.1z"/>
<path class="theglas theglas-text" fill="#F57F17" d="M598.3,377.2v-7.7h3.7v7.5c0,1.8,0.5,2.7,2,2.7c1.5,0,2-0.8,2-2.8v-7.4h3.7v7.6c0,3.7-2.2,5.5-5.7,5.5 C600.4,382.6,598.3,380.8,598.3,377.2z"/>
<path class="theglas theglas-text" fill="#F57F17" d="M612.2,369.5h3.7v12.9h-3.7V369.5z"/>
<path class="theglas theglas-text" fill="#F57F17" d="M622,369.5h5.7c3,0,4.3,1.4,4.3,3.4v0.1c0,1.4-0.7,2.4-2.2,2.8c1.6,0.3,2.6,1.2,2.6,3v0.1 c0,2.3-1.5,3.6-4.7,3.6H622V369.5z M627,374.6c1.2,0,1.6-0.4,1.6-1.3v-0.1c0-0.9-0.5-1.3-1.6-1.3h-1.4v2.7H627z M627.1,379.9 c1.2,0,1.7-0.5,1.7-1.5v-0.1c0-1-0.5-1.5-1.8-1.5h-1.4v3H627.1z"/>
<path class="theglas theglas-text" fill="#F57F17" d="M634,368.9h3.2v13.6H634V368.9z"/>
<path class="theglas theglas-text" fill="#F57F17" d="M638.7,377.8v-0.1c0-3,2.3-4.9,5.1-4.9c2.6,0,4.8,1.5,4.8,4.9v0.8H642c0.1,1.2,0.8,2,2,2 c1.1,0,1.5-0.5,1.6-1.1h3c-0.3,2.1-1.9,3.3-4.8,3.3C640.9,382.6,638.7,380.9,638.7,377.8z M645.5,376.6c-0.1-1.1-0.6-1.8-1.7-1.8 c-1,0-1.6,0.6-1.8,1.8H645.5z"/>
<path class="theglas theglas-text" fill="#F57F17" d="M650,373h3.2v1.5c0.5-1,1.5-1.8,3.1-1.8c1.8,0,3.1,1.1,3.1,3.5v6.1h-3.2v-5.5c0-1.1-0.4-1.6-1.3-1.6 c-1,0-1.6,0.6-1.6,1.8v5.3H650V373z"/>
<path class="theglas theglas-text" fill="#F57F17" d="M660.8,377.8v-0.1c0-3.2,1.8-4.9,4-4.9c1.5,0,2.4,0.6,2.9,1.6v-5.5h3.2v13.6h-3.2v-1.5 c-0.5,1-1.5,1.7-2.9,1.7C662.5,382.6,660.8,381.1,660.8,377.8z M667.7,377.7v-0.1c0-1.6-0.7-2.4-1.9-2.4c-1.2,0-1.9,0.8-1.9,2.4 v0.1c0,1.6,0.7,2.4,1.8,2.4C667,380.2,667.7,379.3,667.7,377.7z"/>
</svg>