<?xml version="1.0" encoding="utf-8"?>
<!DOCTYPE svg PUBLIC "-//W3C//DTD SVG 1.1//EN" "http://www.w3.org/Graphics/SVG/1.1/DTD/svg11.dtd">
<svg aria-labelledby="title" version="1.1" id="Art" xmlns="http://www.w3.org/2000/svg" xmlns:xlink="http://www.w3.org/1999/xlink" x="0px" y="0px" width="124px" height="14px" viewBox="0 0 124 14" enable-background="new 0 0 124 14" xml:space="preserve">
<title id="title" lang="en">GUI Blender</title>

<g>
	<path fill="#2D373E" d="M0,7.1V7C0,3,2.9,0.4,6.8,0.4c3.1,0,5.9,1.4,6.1,4.9h-4C8.8,4.2,8.1,3.6,6.9,3.6C5.2,3.6,4.2,4.9,4.2,7v0.1 c0,1.9,0.6,3.4,2.7,3.4c1.6,0,2.2-0.8,2.3-1.6H7.1V6.3h6.2v1.7c0,3.2-2.1,5.8-6.4,5.8C2.4,13.7,0,11,0,7.1z"/>
	<path fill="#2D373E" d="M14.8,8.2V0.6h4.1V8c0,1.7,0.4,2.5,1.8,2.5c1.4,0,1.8-0.8,1.8-2.5V0.6h4.1v7.5c0,3.9-2.3,5.6-5.9,5.6 C17,13.7,14.8,11.8,14.8,8.2z"/>
	<path fill="#2D373E" d="M28.9,0.6h4.1v12.9h-4.1V0.6z"/>
	<path fill="#2D373E" d="M38.8,0.6h6.1c3.2,0,4.4,1.5,4.4,3.4V4c0,1.5-0.8,2.4-2.2,2.8c1.5,0.3,2.6,1.2,2.6,3v0.1 c0,2.3-1.5,3.6-4.8,3.6h-6V0.6z M44,5.6c1,0,1.4-0.3,1.4-1.1V4.4c0-0.8-0.4-1.2-1.4-1.2h-1.2v2.4H44z M44.1,10.8 c1,0,1.5-0.5,1.5-1.4V9.4c0-0.8-0.5-1.3-1.6-1.3h-1.2v2.7H44.1z"/>
	<path fill="#2D373E" d="M51.2,0.6h4.1v9.7H60v3.2h-8.8V0.6z"/>
	<path fill="#2D373E" d="M61.7,0.6h9.1v3.1h-5.1v1.8h4v2.9h-4v1.9h5.4v3.1h-9.4V0.6z"/>
	<path fill="#2D373E" d="M72.9,0.6h4.6l3.7,6.8V0.6h3.6v12.9h-3.9l-4.3-7.7v7.7h-3.6V0.6z"/>
	<path fill="#2D373E" d="M87,0.6h4.9c4.6,0,7,2.2,7,6.3V7c0,4.1-2.4,6.5-7,6.5H87V0.6z M91.8,10.3c2,0,2.8-1,2.8-3.2V7 c0-2.4-0.9-3.2-2.9-3.2h-0.7v6.6H91.8z"/>
	<path fill="#2D373E" d="M100.5,0.6h9.1v3.1h-5.1v1.8h4v2.9h-4v1.9h5.4v3.1h-9.4V0.6z"/>
	<path fill="#2D373E" d="M111.7,0.6h5.3c3.5,0,5.4,1.4,5.4,4.2v0.1c0,1.8-0.9,2.8-2.2,3.4l2.9,5.3h-4.3l-2.4-4.4h-0.6v4.4h-4.1V0.6z M116.7,6.4c1.1,0,1.7-0.5,1.7-1.4V5c0-0.9-0.6-1.3-1.7-1.3h-1v2.8H116.7z"/>
</g>
</svg>