<?xml version="1.0" encoding="utf-8"?>
<!DOCTYPE svg PUBLIC "-//W3C//DTD SVG 1.1//EN" "http://www.w3.org/Graphics/SVG/1.1/DTD/svg11.dtd">
<svg aria-labelledby="title" version="1.1" id="art" xmlns="http://www.w3.org/2000/svg" xmlns:xlink="http://www.w3.org/1999/xlink" x="0px" y="0px"
	 width="28px" height="36px" viewBox="0 0 28 36" enable-background="new 0 0 28 36" xml:space="preserve">
	<title id="title" lang="en">Tablet</title>

	<path class="icon-background" fill="#637B98" d="M26,0H2C0.9,0,0,0.9,0,2v32c0,1.1,0.9,2,2,2h24c1.1,0,2-0.9,2-2V2C28,0.9,27.1,0,26,0z M14,35
		c-1.1,0-2-0.9-2-2c0-1.1,0.9-2,2-2s2,0.9,2,2C16,34.1,15.1,35,14,35z M26,30H2V2h24V30z"/>
</svg>