<?xml version="1.0" encoding="utf-8"?>

<!DOCTYPE svg PUBLIC "-//W3C//DTD SVG 1.1//EN" "http://www.w3.org/Graphics/SVG/1.1/DTD/svg11.dtd">
<svg version="1.1" id="Layer_1" xmlns="http://www.w3.org/2000/svg" xmlns:xlink="http://www.w3.org/1999/xlink" x="0px" y="0px" width="595.279px" height="255.545px" viewBox="0 32.545 595.279 255.545" enable-background="new 0 32.545 595.279 255.545" xml:space="preserve">

<g id="Layer_2">
	<g opacity="0.4">
		<polygon opacity="0.6" fill="#559B20" enable-background="new    " points="513.37,284.593 473.636,288.069 509.6,288.069 		"/>
		<polygon opacity="0.6" fill="#559B20" enable-background="new    " points="516.742,288.09 513.37,284.593 514.586,288.09 		"/>
		<polyline opacity="0.4" fill="#559B20" enable-background="new    " points="311.264,165.305 288.328,144.087 294.968,179.926
			"/>
		<polygon opacity="0.2" fill="#559B20" enable-background="new    " points="526.022,261.782 531.07,242.03 504.134,246.953 		"/>
		<polygon opacity="0.8" fill="#559B20" enable-background="new    " points="453.738,288.09 473.636,288.069 463.665,275.104 		"/>
		<polygon opacity="0.3" fill="#559B20" enable-background="new    " points="533.331,279.461 569.568,288.069 533.939,272.004
			"/>
		<polygon opacity="0.6" fill="#559B20" enable-background="new    " points="490.958,269.218 506.962,268.799 490.958,257.593
			"/>
		<polygon opacity="0.3" fill="#559B20" enable-background="new    " points="506.962,268.799 533.939,272.004 526.022,261.782
			"/>
		<polygon opacity="0.8" fill="#559B20" enable-background="new    " points="457.864,245.675 487.9,245.402 473.678,241.381 		"/>
		<polygon opacity="0.1" fill="#559B20" enable-background="new    " points="526.022,261.782 551.973,256.755 535.949,253.886
			"/>
		<polygon opacity="0.1" fill="#559B20" enable-background="new    " points="531.07,242.03 568.794,245.005 551.973,227.306 		"/>
		<polygon fill="#559B20" points="378.521,261.992 356.298,281.262 382.753,288.069 		"/>
		<polygon opacity="0.8" fill="#559B20" enable-background="new    " points="435.158,215.45 422.193,202.422 422.193,202.422
			396.681,210.34 		"/>
		<polygon opacity="0.8" fill="#559B20" enable-background="new    " points="418.444,227.306 440.836,252.44 445.297,233.254 		"/>
		<polygon fill="#559B20" points="316.354,251.33 303.032,274.329 330.932,272.297 		"/>
		<polygon fill="#559B20" points="316.145,239.999 317.066,223.012 338.032,244.564 		"/>
		<polygon fill="#559B20" points="362.435,251.624 385.685,243.455 383.465,232.249 		"/>
		<polygon fill="#559B20" points="356.298,281.262 330.932,272.297 322.721,288.09 		"/>
		<polygon fill="#559B20" points="399.886,276.507 433.756,278.665 421.984,264.045 		"/>
		<polygon opacity="0.8" fill="#559B20" enable-background="new    " points="372.154,222.362 383.465,232.249 378.354,214.256
			"/>
		<polygon fill="#559B20" points="398.253,265.867 399.886,276.507 407.176,258.578 		"/>
		<polygon fill="#559B20" points="362.435,251.624 338.032,244.564 358.119,259.145 		"/>
		<polygon opacity="0.8" fill="#559B20" enable-background="new    " points="366.435,202.506 346.223,189.121 326.282,200.411
			"/>
		<polygon opacity="0.8" fill="#559B20" enable-background="new    " points="450.177,264.045 463.665,275.104 462.639,256.001
			"/>
		<polygon opacity="0.8" fill="#559B20" enable-background="new    " points="418.444,288.09 453.738,288.09 433.756,278.665 		"/>
		<line fill="none" x1="575.537" y1="270.266" x2="572.144" y2="280.277"/>
		<polygon opacity="0.2" fill="#559B20" enable-background="new    " points="393.854,133.489 393.854,133.51 393.854,133.51
			384.511,145.092 406.316,141.532 		"/>
		<polygon opacity="0.2" fill="#559B20" enable-background="new    " points="469.175,194.588 497.556,186.23 470.703,169.977 		"/>
		<polygon opacity="0.4" fill="#559B20" enable-background="new    " points="405.227,149.198 384.511,145.092 395.404,165.578
			"/>
		<polygon opacity="0.6" fill="#559B20" enable-background="new    " points="331.184,159.105 346.223,189.121 361.764,163.19 		"/>
		<polygon opacity="0.4" fill="#559B20" enable-background="new    " points="316.145,141.721 360.425,151.565 331.184,159.105
			"/>
		<polygon fill="#559B20" points="385.685,243.455 407.176,258.578 401.101,234.344 		"/>
		<polygon fill="#559B20" points="407.176,258.578 421.984,264.045 417.313,245.424 		"/>
		<polygon opacity="0.2" fill="#559B20" enable-background="new    " points="417.355,156.152 422.864,181.958 431.576,152.13 		"/>
		<polygon opacity="0.8" fill="#559B20" enable-background="new    " points="463.665,275.104 490.958,286.562 490.958,269.218
			"/>
		<polygon opacity="0.8" fill="#559B20" enable-background="new    " points="378.354,214.256 390.649,195.887 366.435,202.506
			"/>
		<polygon fill="#559B20" points="401.101,234.344 417.313,245.424 418.444,227.306 		"/>
		<polygon opacity="0.3" fill="#559B20" enable-background="new    " points="513.37,284.593 539.093,288.09 533.331,279.461 		"/>
		<polygon opacity="0.2" fill="#559B20" enable-background="new    " points="575.788,288.069 572.144,280.277 569.568,288.069
			"/>
		<polygon fill="#559B20" points="317.066,223.012 267.781,208.936 286.36,238.365 		"/>
		<polygon opacity="0.4" fill="#559B20" enable-background="new    " points="445.297,233.254 457.864,245.675 479.187,215.576
			"/>
		<polygon fill="#559B20" points="303.032,274.329 322.721,288.09 298.53,288.069 		"/>
		<polygon fill="#559B20" points="147.468,288.09 107.65,278.895 112.907,288.049 		"/>
		<polygon fill="#559B20" points="32.873,194.588 62.03,199.217 51.431,177.057 		"/>
		<polygon fill="#559B20" points="55.871,142.014 40.12,143.857 53.359,164.07 		"/>
		<polygon fill="#559B20" points="0.031,136.777 0.031,162.959 15.132,147.481 		"/>
		<polygon fill="#559B20" points="76.796,220.875 92.192,232.207 116.258,201.835 		"/>
		<polygon fill="#559B20" points="20.096,200.914 0.031,223.493 39.178,215.346 		"/>
		<polygon fill="#559B20" points="23.594,166.499 24.117,179.318 38.131,166.499 		"/>
		<polygon fill="#559B20" points="10.796,200.411 20.096,200.914 24.117,179.318 		"/>
		<polygon fill="#559B20" points="32.873,194.588 39.178,215.346 42.76,202.526 		"/>
		<polygon fill="#559B20" points="62.03,199.217 53.861,228.813 76.796,220.875 		"/>
		<polygon opacity="0.4" fill="#559B20" enable-background="new    " points="87.793,97.21 67.161,94.613 67.161,108.082 		"/>
		<polygon opacity="0.6" fill="#559B20" enable-background="new    " points="67.161,94.613 37.544,99.033 53.337,107.579 		"/>
		<polygon fill="#559B20" points="5.874,76.118 0.031,106.762 15.132,93.23 		"/>
		<polygon opacity="0.8" fill="#559B20" enable-background="new    " points="0.009,65.143 33.376,76.286 12.493,54.48 		"/>
		<polygon opacity="0.6" fill="#559B20" enable-background="new    " points="87.793,118.262 67.161,108.082 68.544,129.971 		"/>
		<polygon opacity="0.8" fill="#559B20" enable-background="new    " points="25.793,109.045 32.873,119.79 53.337,107.579 		"/>
		<polygon opacity="0.3" fill="#559B20" enable-background="new    " points="69.78,80.496 82.326,71.531 77.53,52.868 		"/>
		<polygon opacity="0.8" fill="#559B20" enable-background="new    " points="27.783,92.33 15.132,93.23 37.544,99.033 		"/>
		<polygon fill="#559B20" points="9.874,121.424 0.031,136.777 0.031,136.777 20.201,130.055 		"/>
		<polygon fill="#559B20" points="54.259,270.475 64.565,276.717 76.964,266.223 		"/>
		<polygon fill="#559B20" points="48.373,245.696 16.263,255.688 54.259,270.475 		"/>
		<polygon fill="#559B20" points="16.263,255.688 22.275,234.218 0.031,223.493 		"/>
		<polygon fill="#559B20" points="40.519,277.408 16.263,255.688 8.659,277.722 		"/>
		<polygon opacity="0.2" fill="#559B20" enable-background="new    " points="108.111,90.361 102.937,111.182 120.364,121.864 		"/>
		<polygon opacity="0.2" fill="#559B20" enable-background="new    " points="148.012,150.14 130.711,133.279 116.196,148.779
			116.322,148.779 116.322,148.779 116.342,148.779 116.342,148.779 148.033,150.14 		"/>
		<polygon opacity="0.4" fill="#559B20" enable-background="new    " points="200.356,167.358 190.365,149.492 180.479,157.451
			"/>
		<polygon fill="#559B20" points="184.228,256.504 194.742,272.465 216.485,250.556 		"/>
		<polygon fill="#559B20" points="153.332,192.222 164.58,222.425 186.134,214.047 		"/>
		<polygon fill="#559B20" points="169.901,246.701 184.228,256.504 196.146,243.455 		"/>
		<polygon fill="#559B20" points="137.016,272.024 147.468,288.09 147.468,288.09 160.685,274.329 		"/>
		<polygon fill="#559B20" points="186.134,214.047 216.401,224.96 200.356,195.803 		"/>
		<polygon opacity="0.2" fill="#559B20" enable-background="new    " points="277.876,161.765 263.214,144.087 231.167,156.362
			"/>
		<polygon opacity="0.2" fill="#559B20" enable-background="new    " points="288.328,144.087 287.26,133.384 263.214,144.087 		"/>
		<polygon fill="#559B20" points="216.485,250.556 245.85,275.732 253.537,260.17 		"/>
		<polygon fill="#559B20" points="245.85,275.732 268.325,279.565 269.749,268.632 		"/>
		<polygon fill="#559B20" points="253.537,260.17 286.36,238.365 264.785,229.966 		"/>
		<polygon opacity="0.8" fill="#559B20" enable-background="new    " points="294.34,206.925 284.453,195.887 267.781,208.936 		"/>
		<polygon opacity="0.8" fill="#559B20" enable-background="new    " points="258.271,175.779 294.968,179.926 277.876,161.765
			"/>
		<polygon fill="#559B20" points="27.511,288.049 40.519,277.408 46.99,288.09 		"/>
		<polygon fill="#559B20" points="59.81,288.069 77.928,282.142 64.565,276.717 		"/>
		<polygon opacity="0.6" fill="#559B20" enable-background="new    " points="68.523,129.971 84.652,156.362 99.627,135.311 		"/>
		<polygon fill="#559B20" points="70.156,178.355 62.03,199.217 93.574,192.724 		"/>
		<polygon opacity="0.6" fill="#559B20" enable-background="new    " points="69.78,80.496 56.165,81.773 67.161,94.613 		"/>
		<polygon opacity="0.2" fill="#559B20" enable-background="new    " points="93.574,75.825 108.111,90.361 107.064,66.398 		"/>
		<polygon opacity="0.4" fill="#559B20" enable-background="new    " points="165.67,156.362 146.462,175.779 169.398,183.738 		"/>
		<polygon fill="#559B20" points="194.742,272.465 191.852,288.069 224.779,288.069 		"/>
		<polygon fill="#559B20" points="53.359,164.07 38.131,166.499 51.431,177.057 		"/>
		<polygon fill="#559B20" points="156.076,259.667 160.685,274.329 184.228,256.504 		"/>
		<polygon fill="#559B20" points="139.885,232.856 156.076,259.667 169.901,246.701 		"/>
		<polygon fill="#559B20" points="264.785,229.966 232.675,219.975 238.708,241.465 		"/>
		<polygon opacity="0.8" fill="#559B20" enable-background="new    " points="232.675,219.975 256.302,192.724 230.225,187.781
			"/>
		<polygon fill="#559B20" points="0.031,251.246 16.263,255.688 -0.011,256.043 		"/>
		<polygon opacity="0.8" fill="#559B20" enable-background="new    " points="53.359,164.07 70.156,178.355 84.652,156.362 		"/>
		<polygon opacity="0.8" fill="#559B20" enable-background="new    " points="116.322,148.779 84.652,156.362 100.842,172.448 		"/>
		<polygon opacity="0.4" fill="#559B20" enable-background="new    " points="102.937,111.182 87.793,118.262 99.627,135.311 		"/>
		<polygon fill="#559B20" points="90.704,268.987 108.572,266.726 92.192,232.207 		"/>
		<polygon fill="#559B20" points="69.926,237.297 54.259,270.475 83.792,251.037 		"/>
		<polygon opacity="0.8" fill="#559B20" enable-background="new    " points="127.947,172.448 116.258,201.835 146.462,175.779
			"/>
		<polygon fill="#559B20" points="116.258,201.835 139.885,232.856 138.482,210.947 		"/>
		<polygon opacity="0.4" fill="#559B20" enable-background="new    " points="230.225,187.781 231.167,156.362 200.356,195.803
			"/>
		<polygon fill="#559B20" points="0.031,162.959 0.031,178.69 23.594,166.499 		"/>
		<polygon fill="#559B20" points="216.485,250.556 232.675,219.975 216.401,224.96 		"/>
		<polygon fill="#559B20" points="0.031,200.935 10.796,200.411 0.031,206.297 		"/>
		<polygon fill="#559B20" points="15.216,288.049 8.659,277.722 0.009,288.09 		"/>
		<polygon fill="#78BE20" points="382.753,288.069 402.19,288.09 388.7,284.048 		"/>
		<polygon fill="#78BE20" points="358.664,288.09 356.298,281.262 341.154,288.069 		"/>
		<polygon opacity="0.3" fill="#78BE20" enable-background="new    " points="539.093,288.09 513.37,284.593 516.742,288.09 		"/>
		<polygon opacity="0.8" fill="#78BE20" enable-background="new    " points="326.282,200.411 284.453,195.887 294.34,206.925 		"/>
		<polygon fill="#78BE20" points="316.354,251.33 286.36,238.365 269.749,268.632 		"/>
		<polygon opacity="0.2" fill="#78BE20" enable-background="new    " points="288.328,144.087 316.145,141.721 325.215,122.305
			"/>
		<polygon opacity="0.1" fill="#78BE20" enable-background="new    " points="535.949,253.886 551.973,256.755 531.07,242.03 		"/>
		<polygon opacity="0.4" fill="#78BE20" enable-background="new    " points="449.549,202.422 479.187,215.576 469.175,194.588
			"/>
		<polygon opacity="0.4" fill="#78BE20" enable-background="new    " points="490.958,257.593 526.022,261.782 504.134,246.953
			"/>
		<polygon opacity="0.1" fill="#78BE20" enable-background="new    " points="497.556,210.34 529.289,218.257 497.556,186.23 		"/>
		<polygon opacity="0.2" fill="#78BE20" enable-background="new    " points="533.939,272.004 569.568,288.069 551.973,256.755
			"/>
		<polygon opacity="0.2" fill="#78BE20" enable-background="new    " points="533.331,279.461 533.939,272.004 506.962,268.799
			"/>
		<polygon opacity="0.2" fill="#78BE20" enable-background="new    " points="487.9,245.402 515.947,230.888 479.187,215.576 		"/>
		<polygon opacity="0.8" fill="#78BE20" enable-background="new    " points="422.193,202.422 435.158,215.45 449.549,202.422 		"/>
		<polygon fill="#78BE20" points="378.521,261.992 399.886,276.507 398.253,265.867 		"/>
		<polygon opacity="0.8" fill="#78BE20" enable-background="new    " points="422.193,202.422 390.649,195.887 390.649,195.887
			396.681,210.34 		"/>
		<polygon opacity="0.8" fill="#78BE20" enable-background="new    " points="340.149,225.672 326.282,200.411 317.066,223.012
			"/>
		<polygon fill="#78BE20" points="356.298,281.262 378.521,261.992 358.119,259.145 		"/>
		<polygon opacity="0.8" fill="#78BE20" enable-background="new    " points="396.681,210.34 383.465,232.249 401.101,234.344 		"/>
		<polygon opacity="0.8" fill="#78BE20" enable-background="new    " points="435.158,215.45 418.444,227.306 445.297,233.254 		"/>
		<polygon fill="#78BE20" points="338.032,244.564 316.354,251.33 358.119,259.145 		"/>
		<polygon fill="#78BE20" points="385.685,243.455 362.435,251.624 378.521,261.992 		"/>
		<polygon fill="#78BE20" points="430.3,263.626 421.984,264.045 433.756,278.665 		"/>
		<polygon fill="#78BE20" points="383.465,232.249 372.154,222.362 340.149,225.672 		"/>
		<polygon fill="#78BE20" points="407.176,258.578 399.886,276.507 421.984,264.045 		"/>
		<polygon opacity="0.8" fill="#78BE20" enable-background="new    " points="445.381,271.92 463.665,275.104 450.177,264.045 		"/>
		<polygon fill="#78BE20" points="417.313,245.424 430.3,263.626 440.836,252.44 		"/>
		<polygon opacity="0.6" fill="#78BE20" enable-background="new    " points="422.864,181.958 390.649,195.887 437.609,195.111
			"/>
		<polygon opacity="0.2" fill="#78BE20" enable-background="new    " points="449.423,183.508 469.175,194.588 470.703,169.977
			"/>
		<polygon opacity="0.2" fill="#78BE20" enable-background="new    " points="431.576,152.13 405.227,149.198 417.355,156.152 		"/>
		<polygon opacity="0.2" fill="#78BE20" enable-background="new    " points="431.576,152.13 422.864,181.958 459.623,166.666 		"/>
		<polygon opacity="0.4" fill="#78BE20" enable-background="new    " points="384.511,145.092 361.764,163.19 395.404,165.578 		"/>
		<polygon opacity="0.4" fill="#78BE20" enable-background="new    " points="360.425,151.565 331.184,159.105 361.764,163.19 		"/>
		<polygon opacity="0.2" fill="#78BE20" enable-background="new    " points="352.13,142.014 360.425,151.565 358.538,128.42 		"/>
		<polygon opacity="0.6" fill="#78BE20" enable-background="new    " points="366.435,202.506 379.066,181.706 379.066,181.706
			379.066,181.706 379.066,181.706 346.223,189.121 		"/>
		<polygon opacity="0.4" fill="#78BE20" enable-background="new    " points="479.187,215.576 457.864,245.675 473.678,241.381
			"/>
		<polygon opacity="0.8" fill="#78BE20" enable-background="new    " points="440.836,252.44 462.639,256.001 457.864,245.675 		"/>
		<polygon opacity="0.6" fill="#78BE20" enable-background="new    " points="379.066,181.706 379.066,181.706 379.066,181.706
			379.066,181.706 390.649,195.887 395.404,165.578 		"/>
		<line fill="none" x1="575.788" y1="288.069" x2="572.144" y2="280.277"/>
		<path opacity="0.2" fill="#78BE20" enable-background="new    " d="M572.144,280.277"/>
		<polygon fill="#78BE20" points="15.216,288.049 27.511,288.049 8.659,277.722 		"/>
		<polygon fill="#78BE20" points="16.263,255.688 6.712,255.896 8.659,277.722 		"/>
		<polygon fill="#78BE20" points="0.031,129.781 4.952,129.09 0.031,106.762 		"/>
		<polygon fill="#78BE20" points="20.201,130.055 0.031,136.777 0.031,136.777 15.132,147.481 		"/>
		<polygon fill="#78BE20" points="40.12,143.857 23.594,166.499 38.131,166.499 		"/>
		<polygon fill="#78BE20" points="38.131,166.499 24.117,179.318 32.873,194.588 		"/>
		<polygon fill="#78BE20" points="42.76,202.526 39.178,215.346 62.03,199.217 		"/>
		<polygon opacity="0.6" fill="#78BE20" enable-background="new    " points="116.196,148.779 99.627,135.311 84.652,156.362
			116.322,148.779 		"/>
		<polygon fill="#78BE20" points="39.178,215.346 22.275,234.218 53.861,228.813 		"/>
		<polygon fill="#78BE20" points="127.947,172.448 93.574,192.724 116.258,201.835 		"/>
		<polygon fill="#78BE20" points="15.132,147.481 0.031,162.959 23.594,166.499 		"/>
		<polygon fill="#78BE20" points="10.796,200.411 0.031,223.493 20.096,200.914 		"/>
		<polygon fill="#78BE20" points="23.594,166.499 6.566,186.733 24.117,179.318 		"/>
		<polygon opacity="0.8" fill="#78BE20" enable-background="new    " points="60.794,153.471 53.359,164.07 84.652,156.362 		"/>
		<polygon fill="#78BE20" points="20.096,200.914 39.178,215.346 32.873,194.588 		"/>
		<polygon opacity="0.8" fill="#78BE20" enable-background="new    " points="44.561,126.409 40.12,143.857 55.871,142.014 		"/>
		<polygon opacity="0.8" fill="#78BE20" enable-background="new    " points="33.376,76.286 15.132,93.23 27.783,92.33 		"/>
		<polygon opacity="0.4" fill="#78BE20" enable-background="new    " points="87.793,118.262 102.937,111.182 87.793,97.21 		"/>
		<polygon opacity="0.8" fill="#78BE20" enable-background="new    " points="67.161,108.082 44.561,126.409 68.544,129.971 		"/>
		<polygon opacity="0.6" fill="#78BE20" enable-background="new    " points="56.165,81.773 37.544,99.033 67.161,94.613 		"/>
		<polygon opacity="0.3" fill="#78BE20" enable-background="new    " points="77.53,52.868 45.587,63.655 69.78,80.496 		"/>
		<polygon opacity="0.2" fill="#78BE20" enable-background="new    " points="87.793,97.21 108.111,90.361 93.574,75.825 		"/>
		<polygon opacity="0.6" fill="#78BE20" enable-background="new    " points="56.165,81.773 45.587,63.655 33.376,76.286 		"/>
		<polygon opacity="0.8" fill="#78BE20" enable-background="new    " points="37.544,99.033 15.132,93.23 25.793,109.045 		"/>
		<polygon opacity="0.8" fill="#78BE20" enable-background="new    " points="32.873,119.79 9.874,121.424 20.201,130.055 		"/>
		<polygon fill="#78BE20" points="40.519,277.408 64.565,276.717 54.259,270.475 		"/>
		<polygon fill="#78BE20" points="64.565,276.717 90.704,268.987 76.964,266.223 		"/>
		<polygon opacity="0.8" fill="#78BE20" enable-background="new    " points="53.337,107.579 32.873,119.79 44.561,126.409 		"/>
		<polygon fill="#78BE20" points="30.067,133.887 15.132,147.481 40.12,143.857 		"/>
		<polygon fill="#78BE20" points="76.796,220.875 53.861,228.813 69.926,237.297 		"/>
		<polygon fill="#78BE20" points="83.792,251.037 92.192,232.207 69.926,237.297 		"/>
		<polygon fill="#78BE20" points="22.275,234.218 16.263,255.688 48.373,245.696 		"/>
		<polygon opacity="0.4" fill="#78BE20" enable-background="new    " points="165.67,156.362 200.356,167.358 180.479,157.451 		"/>
		<polygon opacity="0.5" fill="#78BE20" enable-background="new    " points="200.356,195.803 200.356,167.358 169.398,183.738
			"/>
		<polygon opacity="0.8" fill="#78BE20" enable-background="new    " points="146.462,175.779 116.258,201.835 153.332,192.222
			"/>
		<polygon opacity="0.2" fill="#78BE20" enable-background="new    " points="200.356,167.358 222.517,141.867 190.365,149.492
			"/>
		<polygon fill="#78BE20" points="184.228,256.504 216.485,250.556 196.146,243.455 		"/>
		<polygon fill="#78BE20" points="169.901,246.701 216.401,224.96 186.134,214.047 		"/>
		<polygon fill="#78BE20" points="138.482,210.947 139.885,232.856 164.58,222.425 		"/>
		<polygon fill="#78BE20" points="109.995,229.086 139.885,232.856 116.258,201.835 		"/>
		<polygon fill="#78BE20" points="160.685,274.329 181.694,283.587 194.742,272.465 		"/>
		<polygon fill="#78BE20" points="137.016,272.024 160.685,274.329 127.213,256.797 		"/>
		<polygon fill="#78BE20" points="224.779,288.09 245.85,275.732 216.485,250.556 		"/>
		<polygon fill="#78BE20" points="269.749,268.632 268.325,279.565 303.032,274.329 		"/>
		<polygon fill="#78BE20" points="245.85,275.732 269.749,268.632 253.537,260.17 		"/>
		<polygon opacity="0.8" fill="#78BE20" enable-background="new    " points="256.302,192.724 284.453,195.887 258.271,175.779
			"/>
		<polygon fill="#78BE20" points="286.36,238.365 267.781,208.936 264.785,229.966 		"/>
		<polygon opacity="0.8" fill="#78BE20" enable-background="new    " points="230.225,187.781 258.271,175.779 237.933,174.92 		"/>
		<polygon opacity="0.4" fill="#78BE20" enable-background="new    " points="258.271,175.779 277.876,161.765 231.167,156.362
			"/>
		<polygon opacity="0.8" fill="#78BE20" enable-background="new    " points="0.009,65.143 33.376,76.286 8.701,81.375 		"/>
		<polygon opacity="0.2" fill="#78BE20" enable-background="new    " points="82.326,71.531 69.78,80.496 93.574,75.825 		"/>
		<polygon opacity="0.4" fill="#78BE20" enable-background="new    " points="148.138,150.162 148.012,150.246 146.462,175.779
			165.67,156.362 		"/>
		<polygon fill="#78BE20" points="6.566,186.733 0.031,178.69 0.031,189.498 		"/>
		<polygon fill="#78BE20" points="70.156,178.355 93.574,192.724 100.842,172.448 		"/>
		<polygon opacity="0.8" fill="#78BE20" enable-background="new    " points="12.493,54.48 33.376,76.286 36.183,60.199 		"/>
		<polygon fill="#78BE20" points="108.572,266.726 127.213,256.797 109.995,229.086 		"/>
		<polygon fill="#78BE20" points="5.874,76.118 3.214,90.109 0.031,90.193 0.031,80.35 		"/>
		<polygon fill="#78BE20" points="279.594,288.09 268.325,279.565 255.087,288.09 		"/>
		<polygon fill="#78BE20" points="77.928,282.142 88.904,288.049 59.81,288.069 		"/>
		<polygon fill="#65B026" points="303.032,274.329 279.594,288.09 298.53,288.069 		"/>
		<polygon opacity="0.6" fill="#65B026" enable-background="new    " points="514.586,288.09 513.37,284.593 509.6,288.069 		"/>
		<polygon fill="#65B026" points="382.753,288.069 356.298,281.262 358.664,288.09 		"/>
		<polygon fill="#65B026" points="356.298,281.262 322.721,288.09 341.154,288.069 		"/>
		<polyline opacity="0.8" fill="#65B026" enable-background="new    " points="294.968,179.926 284.453,195.887 326.282,200.411
			"/>
		<polygon opacity="0.8" fill="#65B026" enable-background="new    " points="326.282,200.411 317.066,223.012 294.34,206.925 		"/>
		<polygon fill="#65B026" points="316.354,251.33 316.145,239.999 286.36,238.365 		"/>
		<polygon opacity="0.8" fill="#65B026" enable-background="new    " points="462.639,256.001 490.958,269.218 490.958,257.593
			"/>
		<polygon opacity="0.6" fill="#65B026" enable-background="new    " points="490.958,286.562 513.37,284.593 490.958,269.218 		"/>
		<polygon opacity="0.1" fill="#65B026" enable-background="new    " points="529.289,218.257 531.07,242.03 551.973,227.306 		"/>
		<polygon opacity="0.6" fill="#65B026" enable-background="new    " points="487.9,245.402 490.958,257.593 504.134,246.953 		"/>
		<polygon opacity="0.2" fill="#65B026" enable-background="new    " points="504.134,246.953 531.07,242.03 515.947,230.888 		"/>
		<polygon opacity="0.3" fill="#65B026" enable-background="new    " points="506.962,268.799 513.37,284.593 533.331,279.461 		"/>
		<polygon opacity="0.3" fill="#65B026" enable-background="new    " points="539.093,288.09 569.568,288.069 533.331,279.461 		"/>
		<polygon opacity="0.2" fill="#65B026" enable-background="new    " points="515.947,230.888 529.289,218.257 497.556,210.34 		"/>
		<polygon opacity="0.2" fill="#65B026" enable-background="new    " points="479.187,215.576 497.556,210.34 469.175,194.588 		"/>
		<polygon opacity="0.8" fill="#65B026" enable-background="new    " points="396.681,210.34 401.101,234.344 418.444,227.306 		"/>
		<polygon fill="#65B026" points="407.176,258.578 378.521,261.992 398.253,265.867 		"/>
		<polygon fill="#65B026" points="330.932,272.297 356.298,281.262 358.119,259.145 		"/>
		<polygon fill="#65B026" points="383.465,232.249 385.685,243.455 401.101,234.344 		"/>
		<polygon opacity="0.8" fill="#65B026" enable-background="new    " points="396.681,210.34 390.649,195.887 378.354,214.256 		"/>
		<polygon fill="#65B026" points="378.521,261.992 382.753,288.069 399.886,276.507 		"/>
		<polygon opacity="0.8" fill="#65B026" enable-background="new    " points="366.435,202.506 340.149,225.672 378.354,214.256
			"/>
		<polygon opacity="0.8" fill="#65B026" enable-background="new    " points="435.158,215.45 445.297,233.254 449.549,202.422 		"/>
		<polygon fill="#65B026" points="362.435,251.624 358.119,259.145 378.521,261.992 		"/>
		<polygon fill="#65B026" points="399.886,276.507 418.444,288.09 433.756,278.665 		"/>
		<polygon fill="#65B026" points="417.313,245.424 440.836,252.44 418.444,227.306 		"/>
		<polygon fill="#65B026" points="362.435,251.624 340.149,225.672 338.032,244.564 		"/>
		<polygon opacity="0.8" fill="#65B026" enable-background="new    " points="450.177,264.045 430.3,263.626 430.3,263.626
			445.381,271.92 		"/>
		<polygon opacity="0.8" fill="#65B026" enable-background="new    " points="433.756,278.665 453.738,288.09 453.78,288.09
			445.381,271.92 		"/>
		<polygon opacity="0.6" fill="#65B026" enable-background="new    " points="311.264,165.305 326.282,200.411 346.223,189.121
			"/>
		<polygon opacity="0.4" fill="#65B026" enable-background="new    " points="316.145,141.721 311.264,165.305 331.184,159.105
			"/>
		<polygon opacity="0.8" fill="#65B026" enable-background="new    " points="390.649,195.887 422.193,202.422 437.609,195.111
			"/>
		<polygon opacity="0.2" fill="#65B026" enable-background="new    " points="405.227,149.198 395.404,165.578 422.864,181.958
			"/>
		<polygon opacity="0.6" fill="#65B026" enable-background="new    " points="437.609,195.111 449.549,202.422 469.175,194.588
			"/>
		<polygon opacity="0.2" fill="#65B026" enable-background="new    " points="470.703,169.977 459.623,166.666 449.423,183.508
			"/>
		<polygon opacity="0.2" fill="#65B026" enable-background="new    " points="406.316,141.532 384.511,145.092 405.227,149.198
			"/>
		<polygon opacity="0.4" fill="#65B026" enable-background="new    " points="422.864,181.958 437.609,195.111 449.423,183.508
			"/>
		<polygon opacity="0.6" fill="#65B026" enable-background="new    " points="361.764,163.19 346.223,189.121 379.066,181.706 		"/>
		<polygon opacity="0.2" fill="#65B026" enable-background="new    " points="393.854,133.51 358.538,128.42 384.511,145.092 		"/>
		<polygon opacity="0.4" fill="#65B026" enable-background="new    " points="384.511,145.092 360.425,151.565 361.764,163.19 		"/>
		<polygon opacity="0.4" fill="#65B026" enable-background="new    " points="352.13,142.014 360.425,151.565 316.145,141.721 		"/>
		<polygon opacity="0.2" fill="#65B026" enable-background="new    " points="325.215,122.305 316.145,141.721 358.538,128.42 		"/>
		<polygon opacity="0.8" fill="#65B026" enable-background="new    " points="457.864,245.675 462.639,256.001 487.9,245.402 		"/>
		<polygon opacity="0.8" fill="#65B026" enable-background="new    " points="450.177,264.045 450.177,264.045 450.177,264.045
			462.639,256.001 440.836,252.44 		"/>
		<polygon opacity="0.2" fill="#65B026" enable-background="new    " points="531.07,242.03 551.973,256.755 568.794,245.005 		"/>
		<polygon opacity="0.1" fill="#65B026" enable-background="new    " points="551.973,256.755 569.568,288.049 575.537,270.266
			"/>
		<polygon fill="#65B026" points="401.101,234.344 407.176,258.578 417.313,245.424 		"/>
		<polygon fill="#65B026" points="191.852,288.09 160.685,274.329 173.19,288.09 		"/>
		<polygon opacity="0.6" fill="#65B026" enable-background="new    " points="67.161,94.613 53.337,107.579 67.161,108.082 		"/>
		<polygon fill="#65B026" points="48.373,245.696 54.259,270.475 69.926,237.297 		"/>
		<polygon fill="#65B026" points="0.031,129.781 4.952,129.09 0.031,136.777 		"/>
		<polygon fill="#65B026" points="6.712,255.896 8.659,277.722 0.051,279.377 		"/>
		<polygon fill="#65B026" points="5.874,76.139 0.009,65.143 0.031,80.35 		"/>
		<polygon opacity="0.8" fill="#65B026" enable-background="new    " points="30.067,133.887 30.067,133.887 30.067,133.887
			40.12,143.857 44.561,126.409 		"/>
		<polygon fill="#65B026" points="93.574,192.724 62.03,199.217 76.796,220.875 		"/>
		<polygon fill="#65B026" points="40.12,143.857 38.131,166.499 53.359,164.07 		"/>
		<polygon opacity="0.8" fill="#65B026" enable-background="new    " points="68.523,129.971 55.871,142.014 84.652,156.362 		"/>
		<polygon fill="#65B026" points="100.842,172.448 93.574,192.724 127.947,172.448 		"/>
		<polygon fill="#65B026" points="51.431,177.057 70.156,178.355 53.359,164.07 		"/>
		<polygon fill="#65B026" points="69.926,237.297 92.192,232.207 76.796,220.875 		"/>
		<polygon fill="#65B026" points="116.258,201.835 92.192,232.207 109.995,229.086 		"/>
		<polygon fill="#65B026" points="24.117,179.318 0.031,189.498 0.031,200.935 10.796,200.411 		"/>
		<polygon fill="#65B026" points="55.871,142.014 53.359,164.07 60.794,153.471 		"/>
		<polygon fill="#65B026" points="42.76,202.526 62.03,199.217 32.873,194.588 		"/>
		<polygon opacity="0.6" fill="#65B026" enable-background="new    " points="33.376,76.286 37.544,99.033 56.165,81.773 		"/>
		<polygon opacity="0.8" fill="#65B026" enable-background="new    " points="33.376,76.286 8.701,81.375 15.132,93.23 		"/>
		<polygon opacity="0.2" fill="#65B026" enable-background="new    " points="107.042,66.398 77.53,52.868 93.574,75.825 		"/>
		<polygon opacity="0.4" fill="#65B026" enable-background="new    " points="87.793,118.262 87.793,97.21 67.161,108.082 		"/>
		<polygon opacity="0.6" fill="#65B026" enable-background="new    " points="87.793,118.262 68.544,129.971 99.627,135.311 		"/>
		<polygon fill="#65B026" points="15.132,93.23 0.031,106.762 9.874,121.424 		"/>
		<polygon opacity="0.8" fill="#65B026" enable-background="new    " points="32.873,119.79 25.793,109.045 9.874,121.424 		"/>
		<polygon opacity="0.8" fill="#65B026" enable-background="new    " points="30.067,133.887 32.873,119.79 32.873,119.79
			20.201,130.055 		"/>
		<polygon fill="#65B026" points="0.031,223.493 0.031,242.24 16.263,255.688 		"/>
		<polygon fill="#65B026" points="40.519,277.408 46.99,288.09 59.81,288.069 64.565,276.717 		"/>
		<polygon fill="#65B026" points="53.861,228.813 22.275,234.218 48.373,245.696 		"/>
		<polygon fill="#65B026" points="76.964,266.223 90.704,268.987 83.792,251.037 		"/>
		<polygon fill="#65B026" points="77.928,282.142 88.904,288.09 101.156,288.069 90.704,268.987 		"/>
		<polygon fill="#65B026" points="107.65,278.895 147.468,288.09 108.572,266.726 		"/>
		<polygon opacity="0.2" fill="#65B026" enable-background="new    " points="200.356,195.803 222.517,141.867 200.356,167.358
			"/>
		<polygon opacity="0.2" fill="#65B026" enable-background="new    " points="148.033,150.14 148.138,150.162 165.67,156.362
			151.762,141.427 		"/>
		<polygon opacity="0.4" fill="#65B026" enable-background="new    " points="169.398,183.738 200.356,167.358 165.67,156.362 		"/>
		<polygon fill="#65B026" points="156.076,259.667 184.228,256.504 169.901,246.701 		"/>
		<polygon opacity="0.8" fill="#65B026" enable-background="new    " points="153.332,192.222 186.134,214.047 169.398,183.738
			"/>
		<polygon fill="#65B026" points="164.58,222.425 169.901,246.701 186.134,214.047 		"/>
		<polygon fill="#65B026" points="138.482,210.947 164.58,222.425 153.332,192.222 		"/>
		<polygon fill="#65B026" points="196.146,243.455 216.485,250.556 216.401,224.96 		"/>
		<polygon fill="#65B026" points="160.685,274.329 194.742,272.465 184.228,256.504 		"/>
		<polygon fill="#65B026" points="139.885,232.856 127.213,256.797 156.076,259.667 		"/>
		<polygon opacity="0.2" fill="#65B026" enable-background="new    " points="231.167,156.362 263.214,144.087 222.517,141.867
			"/>
		<polygon fill="#65B026" points="255.087,288.09 268.325,279.565 245.85,275.732 239.587,288.069 		"/>
		<polygon opacity="0.8" fill="#65B026" enable-background="new    " points="267.781,208.936 284.453,195.887 256.302,192.724
			"/>
		<polygon opacity="0.8" fill="#65B026" enable-background="new    " points="256.302,192.724 258.271,175.779 230.225,187.781
			"/>
		<polygon opacity="0.8" fill="#65B026" enable-background="new    " points="216.401,224.96 232.675,219.975 230.225,187.781 		"/>
		<polygon opacity="0.4" fill="#65B026" enable-background="new    " points="294.968,179.926 288.328,144.087 277.876,161.765
			"/>
		<polygon opacity="0.4" fill="#65B026" enable-background="new    " points="237.933,174.92 258.271,175.779 231.167,156.362 		"/>
		<polygon fill="#65B026" points="253.537,260.17 264.785,229.966 238.708,241.465 		"/>
		<polygon fill="#65B026" points="264.785,229.966 267.781,208.936 232.675,219.975 		"/>
		<polygon fill="#65B026" points="238.708,241.465 232.675,219.975 216.485,250.556 		"/>
		<polygon opacity="0.2" fill="#65B026" enable-background="new    " points="93.574,75.825 69.78,80.496 87.793,97.21 		"/>
		<polygon opacity="0.4" fill="#65B026" enable-background="new    " points="148.033,150.14 116.342,148.779 127.947,172.448
			127.947,172.448 148.012,150.246 148.138,150.162 		"/>
		<polygon opacity="0.4" fill="#65B026" enable-background="new    " points="120.364,121.864 99.627,135.311 116.196,148.779 		"/>
		<polygon opacity="0.8" fill="#65B026" enable-background="new    " points="463.665,275.104 490.958,286.562 473.636,288.069
			"/>
		<polygon fill="#65B026" points="107.65,278.895 112.907,288.049 106.98,288.069 		"/>
		<polygon fill="#8AC439" points="294.34,206.925 267.781,208.936 317.066,223.012 		"/>
		<polygon fill="#8AC439" points="317.066,223.012 316.145,239.999 286.36,238.365 		"/>
		<polygon fill="#8AC439" points="316.354,251.33 269.749,268.632 303.032,274.329 		"/>
		<polygon opacity="0.2" fill="#8AC439" enable-background="new    " points="288.328,144.087 287.26,133.384 325.215,122.305 		"/>
		<polygon opacity="0.1" fill="#8AC439" enable-background="new    " points="533.939,272.004 551.973,256.755 526.022,261.782
			"/>
		<polygon opacity="0.2" fill="#8AC439" enable-background="new    " points="535.949,253.886 531.07,242.03 526.022,261.782 		"/>
		<polygon fill="#8AC439" points="399.886,276.507 388.7,284.048 402.19,288.09 418.444,288.09 		"/>
		<polygon fill="#8AC439" points="27.511,288.049 40.519,277.408 8.659,277.722 		"/>
		<polygon fill="#8AC439" points="0.009,288.09 0.009,288.09 8.659,277.722 0.051,279.377 		"/>
		<polygon fill="#8AC439" points="51.431,177.057 62.03,199.217 70.156,178.355 		"/>
		<polygon fill="#8AC439" points="83.792,251.037 54.259,270.475 76.964,266.223 		"/>
		<polygon fill="#8AC439" points="92.192,232.207 108.572,266.726 109.995,229.086 		"/>
		<polygon fill="#8AC439" points="0.031,106.762 4.952,129.09 9.874,121.424 		"/>
		<polyline fill="#8AC439" points="0.031,242.24 16.263,255.688 0.031,251.246 0.031,242.24 		"/>
		<polygon fill="#8AC439" points="0.031,178.69 6.566,186.733 23.594,166.499 		"/>
		<polygon opacity="0.6" fill="#8AC439" enable-background="new    " points="45.587,63.655 56.165,81.773 69.78,80.496 		"/>
		<polygon opacity="0.8" fill="#8AC439" enable-background="new    " points="53.337,107.579 44.561,126.409 67.161,108.082 		"/>
		<polygon opacity="0.8" fill="#8AC439" enable-background="new    " points="37.544,99.033 25.793,109.045 53.337,107.579 		"/>
		<polygon fill="#8AC439" points="181.694,283.587 191.852,288.09 194.742,272.465 		"/>
		<polygon fill="#8AC439" points="0.031,106.762 3.214,90.109 0.031,90.193 		"/>
		<polygon fill="#8AC439" points="64.565,276.717 77.928,282.142 90.704,268.987 		"/>
		<polygon fill="#8AC439" points="93.574,192.724 76.796,220.875 116.258,201.835 		"/>
		<polygon fill="#8AC439" points="38.131,166.499 32.873,194.588 51.431,177.057 		"/>
		<polygon fill="#8AC439" points="15.132,147.481 23.594,166.499 40.12,143.857 		"/>
		<polygon opacity="0.8" fill="#8AC439" enable-background="new    " points="116.322,148.779 100.842,172.448 127.947,172.448
			116.342,148.779 		"/>
		<polygon fill="#8AC439" points="24.117,179.318 20.096,200.914 32.873,194.588 		"/>
		<polygon opacity="0.8" fill="#8AC439" enable-background="new    " points="84.652,156.362 55.871,142.014 60.794,153.471 		"/>
		<polygon opacity="0.8" fill="#8AC439" enable-background="new    " points="84.652,156.362 70.156,178.355 100.842,172.448 		"/>
		<polygon fill="#8AC439" points="0.031,206.297 0.031,223.493 10.796,200.411 		"/>
		<polygon fill="#8AC439" points="62.03,199.217 39.178,215.346 53.861,228.813 		"/>
		<polygon fill="#8AC439" points="39.178,215.346 0.031,223.493 22.275,234.218 		"/>
		<polygon opacity="0.4" fill="#8AC439" enable-background="new    " points="120.364,121.864 102.937,111.182 99.627,135.311 		"/>
		<polygon opacity="0.2" fill="#8AC439" enable-background="new    " points="102.937,111.182 108.111,90.361 87.793,97.21 		"/>
		<polygon opacity="0.8" fill="#8AC439" enable-background="new    " points="37.544,99.033 33.376,76.286 27.783,92.33 		"/>
		<polygon opacity="0.4" fill="#8AC439" enable-background="new    " points="87.793,97.21 69.78,80.496 67.161,94.613 		"/>
		<polygon opacity="0.6" fill="#8AC439" enable-background="new    " points="45.587,63.655 36.183,60.199 33.376,76.286 		"/>
		<polygon fill="#8AC439" points="15.132,93.23 9.874,121.424 25.793,109.045 		"/>
		<polygon opacity="0.8" fill="#8AC439" enable-background="new    " points="32.873,119.79 30.067,133.887 44.561,126.409 		"/>
		<polygon opacity="0.2" fill="#8AC439" enable-background="new    " points="82.326,71.531 93.574,75.825 77.53,52.868 		"/>
		<polygon fill="#8AC439" points="90.704,268.987 101.156,288.069 106.98,288.069 108.572,266.726 		"/>
		<polygon fill="#8AC439" points="53.861,228.813 48.373,245.696 69.926,237.297 		"/>
		<polygon fill="#8AC439" points="83.792,251.037 90.704,268.987 92.192,232.207 		"/>
		<polygon fill="#8AC439" points="20.201,130.055 15.132,147.481 30.067,133.887 		"/>
		<polygon fill="#8AC439" points="54.259,270.475 16.263,255.688 40.519,277.408 		"/>
		<polygon opacity="0.4" fill="#8AC439" enable-background="new    " points="148.012,150.246 127.947,172.448 127.947,172.448
			127.947,172.448 146.462,175.779 		"/>
		<polygon opacity="0.4" fill="#8AC439" enable-background="new    " points="116.196,148.779 130.711,133.279 120.364,121.864
			"/>
		<polygon opacity="0.2" fill="#8AC439" enable-background="new    " points="148.033,150.14 151.762,141.427 130.711,133.279
			148.012,150.14 		"/>
		<polygon opacity="0.4" fill="#8AC439" enable-background="new    " points="180.479,157.451 190.365,149.492 165.67,156.362 		"/>
		<polygon opacity="0.8" fill="#8AC439" enable-background="new    " points="146.462,175.779 153.332,192.222 169.398,183.738
			"/>
		<polygon fill="#8AC439" points="194.742,272.465 224.779,288.09 216.485,250.556 		"/>
		<polygon fill="#8AC439" points="127.213,256.797 160.685,274.329 156.076,259.667 		"/>
		<polygon fill="#8AC439" points="109.995,229.086 127.213,256.797 139.885,232.856 		"/>
		<polygon fill="#8AC439" points="108.572,266.726 147.468,288.09 127.213,256.797 		"/>
		<polygon fill="#8AC439" points="196.146,243.455 216.401,224.96 169.901,246.701 		"/>
		<polygon opacity="0.8" fill="#8AC439" enable-background="new    " points="186.134,214.047 200.356,195.803 169.398,183.738
			"/>
		<polygon fill="#8AC439" points="164.58,222.425 139.885,232.856 169.901,246.701 		"/>
		<polygon fill="#8AC439" points="116.258,201.835 138.482,210.947 153.332,192.222 		"/>
		<polygon fill="#8AC439" points="147.468,288.09 173.19,288.09 160.685,274.329 		"/>
		<polygon opacity="0.2" fill="#8AC439" enable-background="new    " points="231.167,156.362 222.517,141.867 200.356,195.803
			"/>
		<polygon opacity="0.2" fill="#8AC439" enable-background="new    " points="277.876,161.765 288.328,144.087 263.214,144.087
			"/>
		<polygon fill="#8AC439" points="224.779,288.09 239.587,288.069 245.85,275.732 		"/>
		<polygon fill="#8AC439" points="303.032,274.329 268.325,279.565 279.594,288.09 		"/>
		<polygon fill="#8AC439" points="269.749,268.632 286.36,238.365 253.537,260.17 		"/>
		<polygon opacity="0.8" fill="#8AC439" enable-background="new    " points="216.401,224.96 230.225,187.781 200.356,195.803 		"/>
		<polygon opacity="0.4" fill="#8AC439" enable-background="new    " points="237.933,174.92 231.167,156.362 230.225,187.781 		"/>
		<polygon fill="#8AC439" points="216.485,250.556 253.537,260.17 238.708,241.465 		"/>
		<polygon opacity="0.8" fill="#8AC439" enable-background="new    " points="284.453,195.887 294.968,179.926 258.271,175.779
			"/>
		<polygon opacity="0.8" fill="#8AC439" enable-background="new    " points="232.675,219.975 267.781,208.936 256.302,192.724
			"/>
		<polygon opacity="0.8" fill="#8AC439" enable-background="new    " points="44.561,126.409 55.871,142.014 68.523,129.971 		"/>
		<polygon fill="#8AC439" points="0.051,279.377 6.712,255.896 -0.011,256.043 		"/>
		<polygon opacity="0.4" fill="#8AC439" enable-background="new    " points="316.145,141.721 288.328,144.087 311.264,165.305
			"/>
		<polygon opacity="0.8" fill="#8AC439" enable-background="new    " points="445.381,271.92 453.738,288.09 463.665,275.104 		"/>
		<polygon opacity="0.4" fill="#8AC439" enable-background="new    " points="490.958,257.593 506.962,268.799 526.022,261.782
			"/>
		<polygon opacity="0.1" fill="#8AC439" enable-background="new    " points="551.973,256.755 575.537,270.266 568.794,245.005
			"/>
		<polygon opacity="0.8" fill="#8AC439" enable-background="new    " points="462.639,256.001 490.958,257.593 487.9,245.402 		"/>
		<polygon opacity="0.4" fill="#8AC439" enable-background="new    " points="445.297,233.254 479.187,215.576 449.549,202.422
			"/>
		<polygon opacity="0.8" fill="#8AC439" enable-background="new    " points="463.665,275.104 490.958,269.218 462.639,256.001
			"/>
		<polygon opacity="0.2" fill="#8AC439" enable-background="new    " points="497.556,210.34 497.556,186.23 469.175,194.588 		"/>
		<polygon opacity="0.3" fill="#8AC439" enable-background="new    " points="515.947,230.888 531.07,242.03 529.289,218.257 		"/>
		<polygon opacity="0.4" fill="#8AC439" enable-background="new    " points="504.134,246.953 515.947,230.888 487.9,245.402 		"/>
		<polygon opacity="0.6" fill="#8AC439" enable-background="new    " points="490.958,269.218 513.37,284.593 506.962,268.799 		"/>
		<polygon opacity="0.1" fill="#8AC439" enable-background="new    " points="479.187,215.576 515.947,230.888 497.556,210.34 		"/>
		<polygon opacity="0.8" fill="#8AC439" enable-background="new    " points="437.609,195.111 422.193,202.422 449.549,202.422
			"/>
		<polygon fill="#8AC439" points="378.521,261.992 407.176,258.578 385.685,243.455 		"/>
		<polygon opacity="0.8" fill="#8AC439" enable-background="new    " points="378.354,214.256 383.465,232.249 396.681,210.34 		"/>
		<polygon fill="#8AC439" points="340.149,225.672 362.435,251.624 383.465,232.249 		"/>
		<polygon fill="#8AC439" points="358.119,259.145 316.354,251.33 330.932,272.297 		"/>
		<polygon opacity="0.8" fill="#8AC439" enable-background="new    " points="435.158,215.45 396.681,210.34 418.444,227.306 		"/>
		<polygon fill="#8AC439" points="316.145,239.999 316.354,251.33 338.032,244.564 		"/>
		<polygon fill="#8AC439" points="303.032,274.329 322.721,288.09 330.932,272.297 		"/>
		<polygon opacity="0.8" fill="#8AC439" enable-background="new    " points="430.3,263.626 450.177,264.045 440.836,252.44 		"/>
		<polygon fill="#8AC439" points="421.984,264.045 430.3,263.626 417.313,245.424 		"/>
		<polygon opacity="0.8" fill="#8AC439" enable-background="new    " points="372.154,222.362 378.354,214.256 340.149,225.672
			"/>
		<polyline fill="#8AC439" points="338.032,244.564 340.149,225.672 317.066,223.012 		"/>
		<polygon opacity="0.8" fill="#8AC439" enable-background="new    " points="430.3,263.626 433.756,278.665 445.381,271.92 		"/>
		<polygon opacity="0.8" fill="#8AC439" enable-background="new    " points="366.435,202.506 326.282,200.411 340.149,225.672
			"/>
		<polygon opacity="0.6" fill="#8AC439" enable-background="new    " points="331.184,159.105 311.264,165.305 311.264,165.305
			346.223,189.121 		"/>
		<path opacity="0.2" fill="#8AC439" enable-background="new    " d="M572.144,280.277"/>
		<polygon opacity="0.2" fill="#8AC439" enable-background="new    " points="406.316,141.532 405.227,149.198 431.576,152.13 		"/>
		<polygon opacity="0.6" fill="#8AC439" enable-background="new    " points="395.404,165.578 390.649,195.887 422.864,181.958
			"/>
		<polygon opacity="0.4" fill="#8AC439" enable-background="new    " points="469.175,194.588 449.423,183.508 437.609,195.111
			"/>
		<polygon opacity="0.2" fill="#8AC439" enable-background="new    " points="417.355,156.152 405.227,149.198 422.864,181.958
			"/>
		<polygon opacity="0.2" fill="#8AC439" enable-background="new    " points="459.623,166.666 422.864,181.958 449.423,183.508
			"/>
		<polygon opacity="0.6" fill="#8AC439" enable-background="new    " points="366.435,202.506 390.649,195.887 379.066,181.706
			"/>
		<polygon opacity="0.6" fill="#8AC439" enable-background="new    " points="361.764,163.19 379.066,181.706 395.404,165.578 		"/>
		<polygon opacity="0.2" fill="#8AC439" enable-background="new    " points="358.538,128.42 360.425,151.565 384.511,145.092 		"/>
		<polygon opacity="0.2" fill="#8AC439" enable-background="new    " points="352.13,142.014 358.538,128.42 316.145,141.721 		"/>
		<polygon opacity="0.6" fill="#8AC439" enable-background="new    " points="311.264,165.305 326.282,200.411 294.968,179.926
			"/>
		<polygon opacity="0.8" fill="#8AC439" enable-background="new    " points="440.836,252.44 457.864,245.675 445.297,233.254 		"/>
		<polygon opacity="0.4" fill="#8AC439" enable-background="new    " points="473.678,241.381 487.9,245.402 479.187,215.576 		"/>
	</g>
</g>
</svg>
