<?xml version="1.0" encoding="utf-8"?>
<!DOCTYPE svg PUBLIC "-//W3C//DTD SVG 1.0//EN" "http://www.w3.org/TR/2001/REC-SVG-20010904/DTD/svg10.dtd">
<svg aria-labelledby="title" version="1.0" id="Art" xmlns="http://www.w3.org/2000/svg" xmlns:xlink="http://www.w3.org/1999/xlink" x="0px" y="0px" width="27px" height="23px" viewBox="0 0 27 23" enable-background="new 0 0 27 23" xml:space="preserve">
<title id="title" lang="en">Yammer</title>

<g>
	<path fill="#757463" class="icons-background" d="M21.9,3c0.1,0,0.1-0.1,0.2-0.1c0.6-0.2,1.2,0.1,1.5,0.6C24,4,23.8,4.8,23.3,5.3c-2.9,1.6-7,3.5-7.7,3
		C14.9,7.7,21,3.5,21.9,3"/>
	<path fill="#757463" class="icons-background" d="M14.9,1.9L8.4,18.1c-1.1,2.8-2.2,4.7-5.5,4.7c-0.4,0-0.9,0-1.4-0.1c-0.7-0.2-1.1-0.9-0.9-1.5
		c0.2-0.6,0.7-1,1.3-0.9c0,0,0.6,0,0.8,0c1.8,0,2.6-1.1,3.4-3.5L0.1,2C-0.2,1.2,0.2,0.4,1,0.1c0.7-0.3,1.5,0,1.9,0.7l4.8,12.1h0.1
		l4.6-12c0.3-0.7,1-1,1.7-0.8C14.7,0.3,15.1,1.1,14.9,1.9"/>
	<path fill="#757463" class="icons-background" d="M23.6,20c-0.3,0.5-1,0.7-1.5,0.6c0,0-0.1-0.1-0.2-0.1c-0.9-0.5-7-4.8-6.3-5.3c0.7-0.5,4.9,1.4,7.7,3
		C23.8,18.6,24,19.4,23.6,20"/>
	<path fill="#757463" class="icons-background" d="M25.7,13c-3.3,0-7.8-0.4-8.2-1.1c-0.4-0.8,7.1-1.6,8.1-1.6c0.1,0,0.1,0,0.2,0c0.6,0.1,1,0.6,1.1,1.2
		C26.9,12.2,26.4,12.9,25.7,13"/>
</g>
</svg>
